<?xml version="1.0" encoding="UTF-8" standalone="no"?>
<!-- Created with Inkscape (http://www.inkscape.org/) -->

<svg
   xmlns:dc="http://purl.org/dc/elements/1.1/"
   xmlns:cc="http://creativecommons.org/ns#"
   xmlns:rdf="http://www.w3.org/1999/02/22-rdf-syntax-ns#"
   xmlns:svg="http://www.w3.org/2000/svg"
   xmlns="http://www.w3.org/2000/svg"
   xmlns:sodipodi="http://sodipodi.sourceforge.net/DTD/sodipodi-0.dtd"
   xmlns:inkscape="http://www.inkscape.org/namespaces/inkscape"
   width="30.994047mm"
   height="23.021702mm"
   viewBox="0 0 30.994047 23.021702"
   version="1.1"
   id="svg116"
   inkscape:version="0.92.1 r15371"
   sodipodi:docname="aie.svg">
  <defs
     id="defs110" />
  <sodipodi:namedview
     id="base"
     pagecolor="#ffffff"
     bordercolor="#666666"
     borderopacity="1.0"
     inkscape:pageopacity="0.0"
     inkscape:pageshadow="2"
     inkscape:zoom="7.9195959"
     inkscape:cx="43.326483"
     inkscape:cy="62.310157"
     inkscape:document-units="mm"
     inkscape:current-layer="layer1"
     showgrid="false"
     inkscape:window-width="1366"
     inkscape:window-height="705"
     inkscape:window-x="-8"
     inkscape:window-y="-8"
     inkscape:window-maximized="1" />
  <metadata
     id="metadata113">
    <rdf:RDF>
      <cc:Work
         rdf:about="">
        <dc:format>image/svg+xml</dc:format>
        <dc:type
           rdf:resource="http://purl.org/dc/dcmitype/StillImage" />
        <dc:title />
      </cc:Work>
    </rdf:RDF>
  </metadata>
  <g
     inkscape:label="Calque 1"
     inkscape:groupmode="layer"
     id="layer1"
     transform="translate(-72.949403,-132.20238)">
    <g
       id="g134">
      <ellipse
         ry="10.394345"
         rx="15.497024"
         cy="142.59673"
         cx="88.446426"
         id="path118"
         style="fill:#ffaaaa;fill-opacity:1;stroke:none;stroke-width:0.06699999;stroke-miterlimit:4;stroke-dasharray:none;stroke-opacity:1" />
      <path
         inkscape:connector-curvature="0"
         id="path124"
         d="m 76.434212,155.0377 c 0,-0.10089 0.722198,-1.63964 1.604888,-3.41943 1.475311,-2.97473 1.679612,-3.21724 2.530414,-3.0037 l 0.925529,0.23229 -0.892554,-0.72274 c -0.58288,-0.47199 -0.807955,-0.94321 -0.648724,-1.35816 0.216972,-0.56541 0.497798,-0.50721 2.549311,0.52839 1.830139,0.92385 2.218616,1.26847 1.884172,1.67145 -0.235598,0.28388 -0.774449,0.4153 -1.222468,0.29814 -0.513582,-0.13431 -0.711464,-0.0644 -0.55128,0.1948 0.137435,0.22237 -1.058474,1.60988 -2.65757,3.08335 -2.611041,2.40591 -3.521718,3.05125 -3.521718,2.49561 z"
         style="fill:#ffaaaa;fill-opacity:1;stroke:none;stroke-width:0.09571429;stroke-miterlimit:4;stroke-dasharray:none;stroke-opacity:1" />
    </g>
    <path
       style="fill:#ffffff;fill-opacity:1;stroke:none;stroke-width:0.09043869;stroke-miterlimit:4;stroke-dasharray:none;stroke-opacity:1"
       d="m 13.437745,86.647808 c -0.224926,-0.363936 1.490777,-4.247607 4.900906,-11.0937 1.501754,-3.014886 2.728147,-5.666671 2.725317,-5.892857 -0.0028,-0.226186 -0.767979,-0.831711 -1.700332,-1.345614 C 16.380614,66.671426 11.915054,63.072001 9.0402859,59.994583 -5.4608295,44.471265 -1.8448829,24.081535 17.663121,11.37183 33.239062,1.2239124 55.215724,-2.321074 76.129282,1.9408375 93.462217,5.4730653 108.2253,15.217828 114.01649,26.949298 c 2.90891,5.892726 3.69565,13.044142 2.09494,19.042907 -4.18456,15.681842 -21.388838,27.779092 -44.863745,31.546096 -5.562914,0.892675 -19.797714,0.888618 -25.415225,-0.0072 -4.557811,-0.726868 -11.195523,-2.342504 -13.996432,-3.406764 l -1.906974,-0.724593 -3.591252,3.399278 c -5.601394,5.301965 -11.530285,10.129604 -12.440306,10.129604 -0.157425,0 -0.364313,-0.126346 -0.459751,-0.280768 z m 36.906229,-44.093375 0.903711,-0.368257 -1.25,-0.504014 c -1.186521,-0.478422 -1.404161,-0.866582 -4.285714,-7.64359 -1.669643,-3.926765 -3.07895,-7.262623 -3.131793,-7.413017 -0.05284,-0.150394 0.670371,-0.600589 1.607143,-1.000433 l 1.703221,-0.726988 -2.321428,-0.221156 C 39.706299,24.30898 29.997685,24.088884 29.997685,24.369312 c 0,0.14432 0.496321,0.555585 1.102935,0.913922 0.698461,0.41259 1.047634,0.866493 0.952138,1.237716 -0.08294,0.322409 -1.021225,4.100309 -2.085079,8.395333 l -1.93428,7.809136 -1.517264,1.090268 c -0.834495,0.599646 -1.441868,1.16566 -1.349718,1.25781 0.291096,0.291097 12.688411,-0.72716 12.688411,-1.042164 0,-0.165318 -0.393982,-0.558721 -0.875514,-0.874236 l -0.875515,-0.57366 0.61859,-1.666715 c 0.612071,-1.649157 0.639085,-1.669232 2.563875,-1.905457 1.069907,-0.131307 2.055468,-0.170643 2.190135,-0.08741 0.134668,0.08323 0.351629,0.783361 0.482143,1.555854 0.213093,1.261289 0.08879,1.60555 -1.218925,3.375735 -0.800921,1.084165 -1.456218,2.042354 -1.456218,2.129307 0,0.160775 9.409108,-2.757357 11.060575,-3.430314 z m 6.303965,3.086079 c 5.317735,-0.574179 9.298475,-0.559336 23.727557,0.08848 l 5.199239,0.233425 0.444554,-3.534778 c 0.244503,-1.944125 0.5272,-4.097275 0.628218,-4.784775 l 0.183664,-1.25 -0.827457,0.92226 c -0.4551,0.50724 -1.330818,1.650218 -1.94604,2.53995 l -1.118578,1.617693 -3.491343,-0.483207 c -1.920236,-0.265764 -3.569311,-0.561178 -3.664611,-0.656478 -0.0953,-0.0953 0.148779,-1.020833 0.542393,-2.056743 0.475904,-1.252475 0.911782,-1.873504 1.30105,-1.853715 0.321961,0.01636 1.142093,0.05655 1.822511,0.08929 0.99665,0.04795 1.413182,0.318618 2.142857,1.392429 l 0.905732,1.332907 v -2.709086 c 0,-3.213426 -0.370168,-7.100506 -0.675878,-7.097324 -0.11934,0.0012 -0.476761,0.459002 -0.794272,1.017244 -0.360546,0.633911 -0.981825,1.095893 -1.654761,1.230481 -0.59261,0.118521 -1.498007,0.321041 -2.011996,0.450044 -1.076,0.270059 -1.181489,-0.189251 -0.5586,-2.43217 l 0.371939,-1.339286 3.108211,1.1e-5 3.108214,1.1e-5 1.017029,1.274627 c 0.559364,0.701046 1.092993,1.198662 1.185843,1.105814 0.143918,-0.143918 -0.919122,-6.301001 -1.137525,-6.58849 -0.04215,-0.05549 -4.755154,0.240085 -10.47334,0.656825 -9.955421,0.725548 -10.666117,0.733544 -16.744353,0.18839 -8.879993,-0.796444 -8.451643,-0.88927 -5.768175,1.250013 1.252714,0.998674 2.337007,1.980273 2.409536,2.18133 0.07253,0.201057 -0.156079,3.762094 -0.508018,7.913416 -0.698936,8.24435 -0.436593,7.419511 -2.995243,9.417411 -0.487482,0.380642 -0.462436,0.436489 0.200214,0.446428 0.416568,0.0063 3.148711,-0.246843 6.071429,-0.562421 z"
       id="path20"
       inkscape:connector-curvature="0"
       transform="matrix(0.26458333,0,0,0.26458333,72.949403,132.20238)" />
    <path
       style="fill:#ffffff;fill-opacity:1;stroke:none;stroke-width:0.09043869;stroke-miterlimit:4;stroke-dasharray:none;stroke-opacity:1"
       d="M 64.070915,42.64573 62.60843,41.609017 61.302835,35.072368 c -0.718078,-3.595157 -1.305496,-6.719695 -1.305373,-6.943418 1.23e-4,-0.223723 1.038507,-0.687819 2.30752,-1.031325 1.91558,-0.518523 2.488074,-0.549676 3.37211,-0.183496 1.239257,0.513317 1.185696,0.315325 2.177736,8.050161 0.40309,3.142857 0.816419,6.131606 0.918509,6.641665 0.165071,0.82473 0.01448,0.992736 -1.360529,1.517857 -0.850381,0.324763 -1.62113,0.583313 -1.712778,0.574554 -0.09165,-0.0088 -0.824749,-0.482444 -1.629115,-1.052636 z"
       id="path22"
       inkscape:connector-curvature="0"
       transform="matrix(0.26458333,0,0,0.26458333,72.949403,132.20238)" />
    <path
       style="fill:#ffffff;fill-opacity:1;stroke:none;stroke-width:0.09043869;stroke-miterlimit:4;stroke-dasharray:none;stroke-opacity:1"
       d="m 37.428101,32.97044 c 0.669242,-2.46969 1.307479,-3.018451 1.85025,-1.590857 0.855888,2.251155 0.829597,2.582817 -0.23527,2.967926 -0.555325,0.200833 -1.282066,0.475739 -1.61498,0.610902 -0.568968,0.231001 -0.568968,0.111685 0,-1.987971 z"
       id="path24"
       inkscape:connector-curvature="0"
       transform="matrix(0.26458333,0,0,0.26458333,72.949403,132.20238)" />
    <path
       style="fill:#ffffff;fill-opacity:1;stroke:none;stroke-width:0.0319749;stroke-miterlimit:4;stroke-dasharray:none;stroke-opacity:1"
       d="m 37.926603,30.803745 c 0.01012,-0.36012 0.458725,-1.750282 0.565487,-1.752371 0.100672,-0.002 0.284331,0.442649 0.620102,1.5012 0.08497,0.267884 0.07058,0.276375 -0.233551,0.137802 -0.267112,-0.121704 -0.364797,-0.110843 -0.555529,0.06177 -0.276055,0.249827 -0.402543,0.266288 -0.396509,0.0516 z"
       id="path4498"
       inkscape:connector-curvature="0"
       transform="matrix(0.26458333,0,0,0.26458333,72.949403,132.20238)" />
    <path
       style="fill:#000000;fill-opacity:1;stroke:none;stroke-width:0.0319749;stroke-miterlimit:4;stroke-dasharray:none;stroke-opacity:1"
       d="m 39.437396,45.863978 c 0,-0.05104 0.536334,-0.85896 1.191853,-1.79537 0.655519,-0.936412 1.258917,-1.941886 1.340885,-2.234388 0.161143,-0.575037 0.09537,-1.286121 -0.215906,-2.334315 l -0.191178,-0.643764 -1.473201,0.07855 c -1.571913,0.08381 -2.349739,0.244117 -2.701568,0.556792 -0.212267,0.188643 -1.233881,2.660826 -1.233881,2.985843 0,0.08933 0.309681,0.375702 0.688179,0.636383 0.720544,0.496258 1.030542,0.795568 0.92907,0.897039 -0.342439,0.342439 -12.476389,1.29041 -12.476389,0.974725 0,-0.158482 0.890885,-0.909813 1.981738,-1.671306 l 0.78218,-0.546019 2.039063,-8.20625 c 1.617516,-6.509728 2.012641,-8.264239 1.911261,-8.486744 -0.07029,-0.154272 -0.483289,-0.529408 -0.917773,-0.833636 -0.434484,-0.304228 -0.811538,-0.619311 -0.837898,-0.700186 -0.09058,-0.277906 1.570834,-0.326452 6.124948,-0.178971 5.469823,0.177135 9.182727,0.437282 9.060632,0.634838 -0.0307,0.04968 -0.441966,0.253303 -0.913914,0.452494 -1.096517,0.462797 -1.931374,0.962402 -1.931374,1.155797 0,0.190501 3.875894,9.374215 4.953532,11.737114 1.155642,2.53394 1.346718,2.787208 2.550029,3.380014 l 1.000703,0.492994 -0.937569,0.360599 c -1.191621,0.458311 -5.332913,1.785471 -8.198041,2.627228 -1.215339,0.357058 -2.280735,0.672631 -2.367545,0.701274 -0.08681,0.02864 -0.157836,0.01032 -0.157836,-0.04073 z M 38.32171,34.660171 c 1.213314,-0.458433 1.622011,-0.771859 1.619073,-1.241654 -9.29e-4,-0.148564 -0.173571,-0.753096 -0.383649,-1.343404 -0.210078,-0.590308 -0.40174,-1.249381 -0.425915,-1.464607 -0.06346,-0.564954 -0.560761,-1.634532 -0.694442,-1.49358 -0.152182,0.160458 -0.51461,1.268738 -0.51461,1.57364 0,0.136469 0.05166,0.248126 0.11481,0.248126 0.06315,0 0.0057,0.225792 -0.127615,0.501761 -0.300764,0.622513 -1.024494,3.392771 -0.927402,3.549869 0.09425,0.152493 0.0026,0.175086 1.33975,-0.330151 z"
       id="path4500"
       inkscape:connector-curvature="0"
       transform="matrix(0.26458333,0,0,0.26458333,72.949403,132.20238)" />
    <path
       style="fill:#000000;fill-opacity:1;stroke:none;stroke-width:0.0319749;stroke-miterlimit:4;stroke-dasharray:none;stroke-opacity:1"
       d="m 50.335801,46.052358 c -0.04369,-0.0707 0.05744,-0.236968 0.22475,-0.369484 0.997609,-0.79015 1.656384,-1.423182 1.829557,-1.758062 0.358712,-0.693674 0.547929,-2.031366 0.927332,-6.555901 0.558359,-6.65865 0.68146,-8.770145 0.528018,-9.056854 -0.0719,-0.134338 -0.882846,-0.86257 -1.802112,-1.618295 -0.919266,-0.755724 -1.81132,-1.508624 -1.982342,-1.673112 -0.677943,-0.65204 -0.121251,-0.656275 6.233313,-0.04741 5.4943,0.526435 9.576197,0.483665 19.055837,-0.199668 7.27132,-0.524147 9.163957,-0.613431 9.166773,-0.432436 7.58e-4,0.05209 0.137682,0.776555 0.304161,1.60993 0.420006,2.102512 0.763337,4.465823 0.663306,4.565853 -0.116845,0.116846 -0.500183,-0.250633 -1.373428,-1.316608 l -0.751726,-0.917635 -3.110434,0.03375 -3.110434,0.03375 -0.294304,1.010152 c -0.161867,0.555584 -0.328427,1.392359 -0.370135,1.8595 -0.09552,1.069938 -0.02148,1.10842 1.530215,0.79526 2.117951,-0.427441 2.445464,-0.614051 3.233791,-1.842554 0.223376,-0.3481 0.468106,-0.612254 0.543845,-0.587007 0.298654,0.09955 0.55428,2.554819 0.671357,6.448314 0.09523,3.167076 0.09645,3.164402 -0.840401,1.852719 -0.836875,-1.171709 -1.027264,-1.279062 -2.521092,-1.421548 -0.702636,-0.06702 -1.416912,-0.08687 -1.587282,-0.04411 -0.20009,0.05022 -0.444736,0.311725 -0.690981,0.738598 -0.485549,0.841714 -1.189854,2.994251 -1.031519,3.152586 0.173891,0.17389 0.817864,0.296158 3.809094,0.723216 1.493131,0.213174 2.860447,0.411589 3.038481,0.440923 0.289704,0.04773 0.431477,-0.101635 1.350129,-1.422461 1.206703,-1.734984 2.377606,-3.180429 2.576351,-3.180429 0.09596,0 0.115284,0.211362 0.06061,0.662912 -0.27737,2.290731 -1.084626,8.336111 -1.116127,8.358445 -0.02086,0.01479 -2.225543,-0.07197 -4.899291,-0.192801 -14.049804,-0.63493 -18.79651,-0.636734 -25.06441,-0.0095 -5.038761,0.504211 -5.108775,0.509058 -5.200901,0.359993 z m 16.99349,-2.867941 c 1.38564,-0.534359 1.583787,-0.735124 1.476866,-1.496382 C 68.760991,41.36646 68.413706,38.773687 68.034414,35.92632 67.0215,28.322331 66.915196,27.756856 66.4132,27.30243 65.910617,26.847471 65.014099,26.602334 64.152243,26.684212 63.247976,26.770118 61.42493,27.2753 60.571465,27.676476 l -0.583169,0.274121 0.06855,0.664178 c 0.0377,0.365298 0.618653,3.44833 1.291002,6.851182 l 1.222454,6.187005 1.470829,1.02061 c 1.682105,1.167215 1.613697,1.156587 3.288161,0.510845 z"
       id="path4502"
       inkscape:connector-curvature="0"
       transform="matrix(0.26458333,0,0,0.26458333,72.949403,132.20238)" />
  </g>
</svg>
