<?xml version="1.0" encoding="UTF-8" standalone="no"?>
<!-- Created with Inkscape (http://www.inkscape.org/) -->

<svg
   xmlns:dc="http://purl.org/dc/elements/1.1/"
   xmlns:cc="http://creativecommons.org/ns#"
   xmlns:rdf="http://www.w3.org/1999/02/22-rdf-syntax-ns#"
   xmlns:svg="http://www.w3.org/2000/svg"
   xmlns="http://www.w3.org/2000/svg"
   xmlns:sodipodi="http://sodipodi.sourceforge.net/DTD/sodipodi-0.dtd"
   xmlns:inkscape="http://www.inkscape.org/namespaces/inkscape"
   width="30.994047mm"
   height="23.021702mm"
   viewBox="0 0 30.994047 23.021702"
   version="1.1"
   id="svg116"
   inkscape:version="0.92.1 r15371"
   sodipodi:docname="arrete.svg">
  <defs
     id="defs110" />
  <sodipodi:namedview
     id="base"
     pagecolor="#ffffff"
     bordercolor="#666666"
     borderopacity="1.0"
     inkscape:pageopacity="0.0"
     inkscape:pageshadow="2"
     inkscape:zoom="2.8"
     inkscape:cx="10.854828"
     inkscape:cy="24.154009"
     inkscape:document-units="mm"
     inkscape:current-layer="g46"
     showgrid="false"
     inkscape:window-width="1366"
     inkscape:window-height="705"
     inkscape:window-x="-8"
     inkscape:window-y="-8"
     inkscape:window-maximized="1" />
  <metadata
     id="metadata113">
    <rdf:RDF>
      <cc:Work
         rdf:about="">
        <dc:format>image/svg+xml</dc:format>
        <dc:type
           rdf:resource="http://purl.org/dc/dcmitype/StillImage" />
        <dc:title></dc:title>
      </cc:Work>
    </rdf:RDF>
  </metadata>
  <g
     inkscape:label="Calque 1"
     inkscape:groupmode="layer"
     id="layer1"
     transform="translate(-72.949403,-132.20238)">
    <g
       id="g134">
      <g
         id="g46">
        <ellipse
           style="fill:#ffaaaa;fill-opacity:1;stroke:none;stroke-width:0.06699999;stroke-miterlimit:4;stroke-dasharray:none;stroke-opacity:1"
           id="path118"
           cx="88.446426"
           cy="142.59673"
           rx="15.497024"
           ry="10.394345" />
        <path
           style="fill:#ffaaaa;fill-opacity:1;stroke:none;stroke-width:0.09571429;stroke-miterlimit:4;stroke-dasharray:none;stroke-opacity:1"
           d="m 76.434212,155.0377 c 0,-0.10089 0.722198,-1.63964 1.604888,-3.41943 1.475311,-2.97473 1.679612,-3.21724 2.530414,-3.0037 l 0.925529,0.23229 -0.892554,-0.72274 c -0.58288,-0.47199 -0.807955,-0.94321 -0.648724,-1.35816 0.216972,-0.56541 0.497798,-0.50721 2.549311,0.52839 1.830139,0.92385 2.218616,1.26847 1.884172,1.67145 -0.235598,0.28388 -0.774449,0.4153 -1.222468,0.29814 -0.513582,-0.13431 -0.711464,-0.0644 -0.55128,0.1948 0.137435,0.22237 -1.058474,1.60988 -2.65757,3.08335 -2.611041,2.40591 -3.521718,3.05125 -3.521718,2.49561 z"
           id="path124"
           inkscape:connector-curvature="0" />
        <path
           transform="matrix(0.26458333,0,0,0.26458333,72.949403,132.20238)"
           inkscape:connector-curvature="0"
           id="path26"
           d="m 13.437745,86.647808 c -0.224926,-0.363936 1.490777,-4.247607 4.900906,-11.0937 1.501754,-3.014886 2.728147,-5.666671 2.725317,-5.892857 -0.0028,-0.226186 -0.767979,-0.831711 -1.700332,-1.345614 C 16.380614,66.671426 11.915054,63.072001 9.0402859,59.994583 -5.4608295,44.471265 -1.8448829,24.081535 17.663121,11.37183 33.239062,1.2239124 55.215724,-2.321074 76.129282,1.9408375 93.462217,5.4730653 108.2253,15.217828 114.01649,26.949298 c 2.90891,5.892726 3.69565,13.044142 2.09494,19.042907 -4.18456,15.681842 -21.388838,27.779092 -44.863745,31.546096 -5.562914,0.892675 -19.797714,0.888618 -25.415225,-0.0072 -4.557811,-0.726868 -11.195523,-2.342504 -13.996432,-3.406764 l -1.906974,-0.724593 -3.591252,3.399278 c -5.601394,5.301965 -11.530285,10.129604 -12.440306,10.129604 -0.157425,0 -0.364313,-0.126346 -0.459751,-0.280768 z"
           style="fill:#ffffff;fill-opacity:1;stroke:none;stroke-width:0.09043869;stroke-miterlimit:4;stroke-dasharray:none;stroke-opacity:1" />
        <text
           xml:space="preserve"
           style="font-style:normal;font-variant:normal;font-weight:normal;font-stretch:normal;font-size:5.86752939px;line-height:1.25;font-family:'Snap ITC';-inkscape-font-specification:'Snap ITC';text-align:center;letter-spacing:0px;word-spacing:0px;text-anchor:middle;fill:#000000;fill-opacity:1;stroke:none;stroke-width:0.4400647"
           x="110.65458"
           y="112.17791"
           id="text90"
           transform="scale(0.79709342,1.2545581)"><tspan
             sodipodi:role="line"
             id="tspan88"
             x="110.65458"
             y="112.17791"
             style="text-align:center;text-anchor:middle;stroke-width:0.4400647">MAIS</tspan></text>
        <text
           xml:space="preserve"
           style="font-style:normal;font-variant:normal;font-weight:normal;font-stretch:normal;font-size:5.99831772px;line-height:1.25;font-family:'Snap ITC';-inkscape-font-specification:'Snap ITC';text-align:start;letter-spacing:0px;word-spacing:0px;text-anchor:start;fill:#000000;fill-opacity:1;stroke:none;stroke-width:0.44987381"
           x="111.52533"
           y="101.9067"
           id="text94"
           transform="scale(0.68739017,1.4547779)"><tspan
             sodipodi:role="line"
             id="tspan92"
             x="111.52533"
             y="101.9067"
             style="stroke-width:0.44987381">ARRETES</tspan></text>
      </g>
    </g>
  </g>
</svg>
