<?xml version="1.0" encoding="UTF-8" standalone="no"?>
<!-- Created with Inkscape (http://www.inkscape.org/) -->

<svg
   xmlns:dc="http://purl.org/dc/elements/1.1/"
   xmlns:cc="http://creativecommons.org/ns#"
   xmlns:rdf="http://www.w3.org/1999/02/22-rdf-syntax-ns#"
   xmlns:svg="http://www.w3.org/2000/svg"
   xmlns="http://www.w3.org/2000/svg"
   xmlns:sodipodi="http://sodipodi.sourceforge.net/DTD/sodipodi-0.dtd"
   xmlns:inkscape="http://www.inkscape.org/namespaces/inkscape"
   width="30.994047mm"
   height="23.021702mm"
   viewBox="0 0 30.994047 23.021702"
   version="1.1"
   id="svg116"
   inkscape:version="0.92.1 r15371"
   sodipodi:docname="arrete.svg">
  <sodipodi:namedview
     id="base"
     pagecolor="#ffffff"
     bordercolor="#666666"
     borderopacity="1.0"
     inkscape:pageopacity="0.0"
     inkscape:pageshadow="2"
     inkscape:zoom="5.6"
     inkscape:cx="64.200246"
     inkscape:cy="68.608034"
     inkscape:document-units="mm"
     inkscape:current-layer="g5067"
     showgrid="false"
     inkscape:window-width="1366"
     inkscape:window-height="705"
     inkscape:window-x="-8"
     inkscape:window-y="-8"
     inkscape:window-maximized="1" />
  <defs
     id="defs110" />
  <metadata
     id="metadata113">
    <rdf:RDF>
      <cc:Work
         rdf:about="">
        <dc:format>image/svg+xml</dc:format>
        <dc:type
           rdf:resource="http://purl.org/dc/dcmitype/StillImage" />
        <dc:title />
      </cc:Work>
    </rdf:RDF>
  </metadata>
  <g
     inkscape:label="Calque 1"
     inkscape:groupmode="layer"
     id="layer1"
     transform="translate(-72.949403,-132.20238)">
    <g
       id="g134">
      <g
         id="g46">
        <ellipse
           style="fill:#ffaaaa;fill-opacity:1;stroke:none;stroke-width:0.06699999;stroke-miterlimit:4;stroke-dasharray:none;stroke-opacity:1"
           id="path118"
           cx="88.446426"
           cy="142.59673"
           rx="15.497024"
           ry="10.394345" />
        <path
           style="fill:#ffaaaa;fill-opacity:1;stroke:none;stroke-width:0.09571429;stroke-miterlimit:4;stroke-dasharray:none;stroke-opacity:1"
           d="m 76.434212,155.0377 c 0,-0.10089 0.722198,-1.63964 1.604888,-3.41943 1.475311,-2.97473 1.679612,-3.21724 2.530414,-3.0037 l 0.925529,0.23229 -0.892554,-0.72274 c -0.58288,-0.47199 -0.807955,-0.94321 -0.648724,-1.35816 0.216972,-0.56541 0.497798,-0.50721 2.549311,0.52839 1.830139,0.92385 2.218616,1.26847 1.884172,1.67145 -0.235598,0.28388 -0.774449,0.4153 -1.222468,0.29814 -0.513582,-0.13431 -0.711464,-0.0644 -0.55128,0.1948 0.137435,0.22237 -1.058474,1.60988 -2.65757,3.08335 -2.611041,2.40591 -3.521718,3.05125 -3.521718,2.49561 z"
           id="path124"
           inkscape:connector-curvature="0" />
        <path
           inkscape:connector-curvature="0"
           id="path26"
           d="m 13.437745,86.647808 c -0.224926,-0.363936 1.490777,-4.247607 4.900906,-11.0937 1.501754,-3.014886 2.728147,-5.666671 2.725317,-5.892857 -0.0028,-0.226186 -0.767979,-0.831711 -1.700332,-1.345614 C 16.380614,66.671426 11.915054,63.072001 9.0402859,59.994583 -5.4608295,44.471265 -1.8448829,24.081535 17.663121,11.37183 33.239062,1.2239124 55.215724,-2.321074 76.129282,1.9408375 93.462217,5.4730653 108.2253,15.217828 114.01649,26.949298 c 2.90891,5.892726 3.69565,13.044142 2.09494,19.042907 -4.18456,15.681842 -21.388838,27.779092 -44.863745,31.546096 -5.562914,0.892675 -19.797714,0.888618 -25.415225,-0.0072 -4.557811,-0.726868 -11.195523,-2.342504 -13.996432,-3.406764 l -1.906974,-0.724593 -3.591252,3.399278 c -5.601394,5.301965 -11.530285,10.129604 -12.440306,10.129604 -0.157425,0 -0.364313,-0.126346 -0.459751,-0.280768 z"
           style="fill:#ffffff;fill-opacity:1;stroke:none;stroke-width:0.09043869;stroke-miterlimit:4;stroke-dasharray:none;stroke-opacity:1"
           transform="matrix(0.26458333,0,0,0.26458333,72.949403,132.20238)" />
        <path
           style="font-style:normal;font-variant:normal;font-weight:normal;font-stretch:normal;font-size:5.86740017px;line-height:1.25;font-family:'Snap ITC';-inkscape-font-specification:'Snap ITC, Normal';font-variant-ligatures:normal;font-variant-caps:normal;font-variant-numeric:normal;font-feature-settings:normal;text-align:center;letter-spacing:0px;word-spacing:0px;writing-mode:lr-tb;text-anchor:middle;fill:#000000;fill-opacity:1;fill-rule:nonzero;stroke:none;stroke-width:0.4400647"
           d="m 85.694613,140.66182 c -0.91649,-0.0515 -1.832988,-0.10304 -2.749486,-0.15455 0.16291,-0.16731 0.371445,-0.2816 0.505628,-0.48226 0.144314,-1.0517 0.288628,-2.10341 0.432941,-3.1551 -0.339498,0.88058 -0.678996,1.76117 -1.018494,2.64176 -0.291545,-0.98363 -0.583082,-1.96725 -0.874626,-2.95088 0.116463,1.27836 0.232926,2.55671 0.34939,3.83506 0.245114,0.17851 0.49022,0.35703 0.735334,0.53554 -0.857122,-0.11981 -1.714245,-0.23961 -2.571367,-0.35942 0.124035,-0.13901 0.305246,-0.21944 0.395422,-0.39313 0.08589,-1.33181 0.171797,-2.66363 0.257692,-3.99544 -0.171271,-0.1198 -0.342543,-0.23961 -0.513814,-0.35942 0.718579,-0.13778 1.437167,-0.27556 2.155747,-0.41334 0.09667,0.65536 0.193343,1.3107 0.290022,1.96604 0.0921,-0.58345 0.184208,-1.16692 0.276313,-1.75038 0.696508,0.0635 1.393016,0.127 2.089516,0.19049 -0.21009,0.11502 -0.42018,0.23004 -0.630277,0.34504 0.08754,1.31789 0.175081,2.63578 0.262618,3.95367 0.202478,0.18211 0.404963,0.36421 0.607441,0.54632 z m 2.265363,-2.77116 c -0.105814,-0.47803 -0.21162,-0.95606 -0.317426,-1.43409 -0.102762,0.58945 -0.205531,1.1789 -0.308292,1.76836 0.208575,-0.11142 0.417143,-0.22285 0.625718,-0.33427 z m 1.84288,2.0631 c -0.663771,0.32347 -1.327543,0.64696 -1.991322,0.97044 0.169749,-0.35823 0.339506,-0.71646 0.509255,-1.07468 -0.04796,-0.26478 -0.09592,-0.52955 -0.143876,-0.79433 -0.246628,0.03 -0.493257,0.0599 -0.739894,0.0899 -0.07155,0.3091 -0.143102,0.61821 -0.214657,0.92731 0.05804,0.12358 0.409993,0.38798 0.243863,0.40419 -0.695584,0.0785 -1.391167,0.15706 -2.086751,0.23558 0.172587,-0.22506 0.385729,-0.40728 0.534021,-0.65802 0.231523,-1.41723 0.463047,-2.83447 0.694571,-4.25171 -0.132453,-0.13538 -0.264898,-0.27077 -0.397351,-0.40615 0.895184,0.0467 1.790359,0.0935 2.685543,0.14018 -0.208567,0.11741 -0.417143,0.23482 -0.62571,0.35224 0.366137,1.28674 0.732282,2.57347 1.098418,3.86021 0.144633,0.0683 0.289266,0.13657 0.43389,0.20487 z m 2.612474,0.59664 c -0.933245,0.14257 -1.86649,0.28514 -2.799727,0.42772 0.150826,-0.20408 0.353128,-0.36298 0.472724,-0.59445 0.07459,-1.32582 0.149184,-2.65162 0.223776,-3.97742 -0.267177,-0.32229 -0.534363,-0.64457 -0.801549,-0.96685 0.918778,0.121 1.837556,0.24201 2.756333,0.36301 -0.341777,0.15455 -0.683563,0.30911 -1.025341,0.46366 0.154525,1.19208 0.309049,2.38418 0.463574,3.57626 0.236736,0.23603 0.473473,0.47205 0.71021,0.70807 z m 2.559945,-5.05708 c 0.1294,0.64215 0.258808,1.28432 0.388217,1.9265 -0.310731,-0.35395 -0.92427,-1.35554 -1.235878,-0.58608 0.03797,0.83494 0.741313,0.78312 1.106828,1.10674 0.411683,0.18812 0.78265,0.81535 0.621311,1.52513 -0.214195,1.03896 -0.996646,1.40325 -1.623473,1.42066 -0.564812,0.13099 -1.235646,-0.49776 -1.59087,-0.77844 0,0.26015 0,0.52029 0,0.78042 -0.136264,-0.64096 -0.272519,-1.28194 -0.408774,-1.92291 0.385554,0.48055 0.945751,1.02476 1.434115,0.58946 0.448652,-0.77429 -0.324083,-1.23264 -0.712203,-1.36491 -0.44721,-0.2391 -0.951618,-0.85236 -0.80241,-1.69199 0.189756,-1.00062 0.963933,-1.24624 1.541164,-1.11495 0.436305,0.0422 0.880222,0.53148 1.197832,0.79963 0.02805,-0.22976 0.05609,-0.45952 0.08414,-0.68926 z"
           id="text90"
           inkscape:connector-curvature="0" />
        <g
           id="g5063">
          <g
             id="g5067">
            <path
               style="font-style:normal;font-variant:normal;font-weight:normal;font-stretch:normal;font-size:5.99831772px;line-height:1.25;font-family:'Snap ITC';-inkscape-font-specification:'Snap ITC';text-align:start;letter-spacing:0px;word-spacing:0px;text-anchor:start;fill:#000000;fill-opacity:1;fill-rule:nonzero;stroke:none;stroke-width:0.44987381"
               d="m 78.751192,144.88128 c -0.09328,-0.56669 -0.186565,-1.13338 -0.279844,-1.70008 -0.0906,0.69878 -0.181196,1.39756 -0.271794,2.09634 0.183884,-0.13208 0.367761,-0.26417 0.551638,-0.39626 z m 1.624715,2.44574 c -0.585196,0.38346 -1.170385,0.76694 -1.755574,1.15042 0.149652,-0.42466 0.299304,-0.84933 0.448955,-1.27399 -0.08757,-0.33767 -0.0282,-1.12216 -0.29522,-0.91416 -0.172899,0.12657 -0.493972,-0.16008 -0.530163,0.3477 -0.04501,0.39555 -0.25606,0.89194 0.01679,1.09445 0.291625,0.35465 -0.219189,0.1924 -0.347593,0.27647 -0.478974,0.0727 -0.95794,0.14543 -1.436914,0.21814 0.14849,-0.3077 0.395758,-0.47505 0.481895,-0.87133 0.200416,-1.64966 0.400831,-3.29933 0.601247,-4.94899 -0.131519,-0.21048 -0.532927,-0.60052 -0.147755,-0.46726 0.721684,0.0507 1.443375,0.1013 2.165059,0.15196 -0.161729,0.17677 -0.453072,0.23656 -0.537834,0.4828 0.318192,1.50364 0.636385,3.00728 0.954578,4.51091 0.127511,0.081 0.255015,0.16192 0.382526,0.24288 z m 1.016705,-2.39887 c 0.674131,0.87708 0.519708,-1.79069 0.07095,-1.33218 -0.02365,0.44406 -0.0473,0.88812 -0.07095,1.33218 z m 2.124001,2.96556 c -0.449628,0.31956 -0.899264,0.63913 -1.348893,0.95868 0.130068,-0.39021 0.213833,-0.77053 -0.01054,-1.08514 -0.197144,-0.5075 -0.394287,-1.015 -0.591424,-1.5225 -0.349847,-0.30293 -0.11564,0.7247 -0.150683,1.14309 -0.02186,0.49994 0.264171,0.67382 0.39129,1.016 0.147445,0.28716 -0.337522,-0.0202 -0.463603,0.01 -0.388719,-0.0924 -0.777445,-0.18477 -1.166165,-0.27715 0.188421,-0.22632 0.351106,-0.48555 0.319616,-0.99294 0.08607,-1.36485 0.17213,-2.72968 0.258191,-4.09451 -0.21206,-0.19458 -0.424127,-0.38916 -0.636194,-0.58374 0.787392,-0.14398 1.571581,-0.5009 2.363207,-0.42688 0.71859,-0.0398 1.197206,1.69852 0.851305,3.00616 -0.08578,0.8627 -0.916821,0.98018 -0.881935,1.31233 0.355277,0.51224 0.710555,1.02448 1.065832,1.53672 z m 1.258296,-2.96556 c 0.67413,0.87708 0.519715,-1.79069 0.07095,-1.33218 -0.02365,0.44406 -0.0473,0.88812 -0.07095,1.33218 z m 2.124001,2.96556 c -0.449629,0.31956 -0.899258,0.63913 -1.348893,0.95868 0.130074,-0.39021 0.21384,-0.77053 -0.01054,-1.08514 -0.197137,-0.5075 -0.39428,-1.015 -0.591424,-1.5225 -0.34984,-0.30293 -0.115639,0.7247 -0.150676,1.14309 -0.02186,0.49994 0.264171,0.67382 0.391284,1.016 0.147445,0.28716 -0.337516,-0.0202 -0.463604,0.01 -0.388719,-0.0924 -0.777438,-0.18477 -1.166164,-0.27715 0.188427,-0.22632 0.351105,-0.48555 0.319623,-0.99294 0.08606,-1.36485 0.172122,-2.72968 0.25819,-4.09451 -0.212067,-0.19458 -0.424133,-0.38916 -0.636193,-0.58374 0.787392,-0.14398 1.571573,-0.5009 2.363206,-0.42688 0.718591,-0.0398 1.197207,1.69852 0.851298,3.00616 -0.08577,0.8627 -0.91682,0.98018 -0.881935,1.31233 0.355278,0.51224 0.710555,1.02448 1.065833,1.53672 z m 3.303783,-2.26678 c -0.06039,0.93882 -0.120796,1.87761 -0.18119,2.81642 -1.105289,-0.10225 -2.210578,-0.20452 -3.315867,-0.30678 0.290588,-0.21446 0.581168,-0.42893 0.871749,-0.64339 -0.10335,-1.55946 -0.206692,-3.11894 -0.310041,-4.67841 -0.154058,-0.14797 -0.482761,-0.35201 -0.528005,-0.46504 1.040365,-0.15035 2.08073,-0.30069 3.121102,-0.45104 0.06576,0.65191 0.131532,1.30382 0.197302,1.95573 -0.166383,-0.29116 -0.27741,-0.8608 -0.530831,-0.71404 -0.255908,0.002 -0.511823,0.004 -0.767732,0.007 -0.04899,0.43318 -0.09798,0.86637 -0.146971,1.29956 0.231279,-0.15085 0.504187,-0.17604 0.710968,-0.40082 0.126679,-0.48452 0.232386,-0.80217 0.202154,-0.038 0.02111,0.79251 0.04221,1.58501 0.06332,2.37753 -0.119283,-0.33213 -0.172941,-0.881 -0.420305,-0.79002 -0.190104,-0.007 -0.474306,-0.34554 -0.483902,0.28441 -0.0057,0.33023 -0.312439,1.04644 -0.03884,1.0184 0.340519,0.0904 0.681038,0.1808 1.021565,0.2712 0.178508,-0.51415 0.357016,-1.02828 0.535525,-1.54243 z m 3.366197,-3.73676 c -0.325479,1.34643 -0.650958,2.69285 -0.976437,4.03928 -0.04228,-1.02686 -0.08456,-2.05373 -0.126838,-3.08059 -0.187238,1.57367 -0.374469,3.14734 -0.5617,4.72102 0.284538,0.28832 0.569083,0.57663 0.853621,0.86495 -0.614719,-0.0696 -1.229438,-0.13918 -1.844158,-0.20878 0.197976,-0.13066 0.395944,-0.26133 0.593919,-0.392 -0.224818,-1.69013 -0.449629,-3.38027 -0.674446,-5.07041 -0.06376,1.24133 -0.127511,2.48266 -0.19126,3.72398 -0.131539,-1.37483 -0.263071,-2.74966 -0.394603,-4.1245 1.107296,-0.15765 2.214599,-0.3153 3.321902,-0.47295 z m 3.052123,3.73676 c -0.0604,0.93882 -0.120795,1.87761 -0.181196,2.81642 -1.105289,-0.10225 -2.210572,-0.20452 -3.315861,-0.30678 0.290581,-0.21446 0.581161,-0.42893 0.871749,-0.64339 -0.103349,-1.55946 -0.206699,-3.11894 -0.310048,-4.67841 -0.154058,-0.14797 -0.482754,-0.35201 -0.528005,-0.46504 1.040372,-0.15035 2.080737,-0.30069 3.121102,-0.45104 0.06577,0.65191 0.131532,1.30382 0.197302,1.95573 -0.166376,-0.29116 -0.27741,-0.8608 -0.53083,-0.71404 -0.255909,0.002 -0.511817,0.004 -0.767733,0.007 -0.04899,0.43318 -0.09798,0.86637 -0.146971,1.29956 0.23128,-0.15085 0.504194,-0.17604 0.710975,-0.40082 0.126672,-0.48452 0.232386,-0.80217 0.202155,-0.038 0.0211,0.79251 0.0422,1.58501 0.06331,2.37753 -0.119276,-0.33213 -0.17294,-0.881 -0.420305,-0.79002 -0.190104,-0.007 -0.474299,-0.34554 -0.483902,0.28441 -0.0057,0.33023 -0.312432,1.04644 -0.03883,1.0184 0.340519,0.0904 0.681038,0.1808 1.021558,0.2712 0.178508,-0.51415 0.357023,-1.02828 0.535532,-1.54243 z m 2.609202,-3.58763 c 0.114086,0.76127 0.228172,1.52254 0.342259,2.28381 -0.222454,-0.7585 -1.375523,-1.70486 -0.966375,-0.10652 0.486061,0.67722 1.484931,0.62857 1.420651,2.31491 -0.15155,1.57561 -1.054093,1.99968 -1.70754,1.88682 -0.398837,0.15863 -0.991223,-0.99689 -1.14656,-0.79163 5.78e-4,0.44369 0.02144,1.15097 -0.07502,0.33359 -0.09512,-0.60167 -0.190235,-1.20333 -0.285356,-1.805 0.345207,0.62983 1.094531,1.47926 1.375695,0.32728 -0.02789,-1.41475 -1.035547,-0.96756 -1.333792,-2.07743 -0.37937,-1.0126 0.109557,-2.38337 0.648086,-2.4643 0.586282,-0.25868 1.189171,0.19861 1.649434,0.96342 0.02617,-0.28832 0.05234,-0.57664 0.07852,-0.86495 z"
               id="text94"
               inkscape:connector-curvature="0" />
          </g>
        </g>
        <text
           xml:space="preserve"
           style="font-size:20px;font-style:normal;font-weight:normal;line-height:125%;letter-spacing:0px;word-spacing:0px;fill:#000000;fill-opacity:1;stroke:none;fill-rule:nonzero;"
           id="text5098"><tspan
             xml:space="preserve"
             sodipodi:role="line"
             style="font-style:normal;font-variant:normal;font-weight:normal;font-stretch:normal;font-size:5.86752939px;line-height:1.25;font-family:'Snap ITC';-inkscape-font-specification:'Snap ITC';text-align:center;letter-spacing:0px;word-spacing:0px;text-anchor:middle;fill:#000000;fill-opacity:1;stroke:none;stroke-width:0.4400647;fill-rule:nonzero;"
             id="tspan5096"><tspan
               xml:space="preserve"
               sodipodi:role="line"
               style="text-align:center;text-anchor:middle;stroke-width:0.4400647;fill-rule:nonzero;"
               id="tspan5094">MAIS</tspan></tspan></text>
        <text
           id="text5150"
           style="font-size:20px;font-style:normal;font-weight:normal;line-height:125%;letter-spacing:0px;word-spacing:0px;fill:#000000;fill-opacity:1;stroke:none;fill-rule:nonzero;"
           xml:space="preserve"><tspan
             id="tspan5140"
             style="font-size:20px;font-style:normal;font-weight:normal;line-height:125%;letter-spacing:0px;word-spacing:0px;fill:#000000;fill-opacity:1;stroke:none;fill-rule:nonzero;"
             sodipodi:role="line"
             xml:space="preserve"><tspan
               id="tspan5138"
               style="font-style:normal;font-variant:normal;font-weight:normal;font-stretch:normal;font-size:5.86752939px;line-height:1.25;font-family:'Snap ITC';-inkscape-font-specification:'Snap ITC';text-align:center;letter-spacing:0px;word-spacing:0px;text-anchor:middle;fill:#000000;fill-opacity:1;stroke:none;stroke-width:0.4400647;fill-rule:nonzero;"
               sodipodi:role="line"
               xml:space="preserve"><tspan
                 id="tspan5136"
                 style="text-align:center;text-anchor:middle;stroke-width:0.4400647;fill-rule:nonzero;"
                 sodipodi:role="line"
                 xml:space="preserve">MAIS</tspan></tspan></tspan><tspan
             id="tspan5144"
             style="font-style:normal;font-variant:normal;font-weight:normal;font-stretch:normal;font-size:5.99831772px;line-height:1.25;font-family:'Snap ITC';-inkscape-font-specification:'Snap ITC';text-align:start;letter-spacing:0px;word-spacing:0px;text-anchor:start;fill:#000000;fill-opacity:1;stroke:none;stroke-width:0.44987381;fill-rule:nonzero;"
             sodipodi:role="line"
             xml:space="preserve"><tspan
               id="tspan5142"
               style="stroke-width:0.44987381;fill-rule:nonzero;"
               sodipodi:role="line"
               xml:space="preserve">ARRETES</tspan></tspan><tspan
             id="tspan5148"
             style="font-style:normal;font-variant:normal;font-weight:normal;font-stretch:normal;font-size:5.86752939px;line-height:1.25;font-family:'Snap ITC';-inkscape-font-specification:'Snap ITC';text-align:center;letter-spacing:0px;word-spacing:0px;text-anchor:middle;fill:#000000;fill-opacity:1;stroke:none;stroke-width:0.4400647;fill-rule:nonzero;"
             sodipodi:role="line"
             xml:space="preserve"><tspan
               id="tspan5146"
               style="text-align:center;text-anchor:middle;stroke-width:0.4400647;fill-rule:nonzero;"
               sodipodi:role="line"
               xml:space="preserve">MAIS</tspan></tspan></text>
      </g>
    </g>
  </g>
</svg>
