<?xml version="1.0" encoding="UTF-8" standalone="no"?>
<!-- Created with Inkscape (http://www.inkscape.org/) -->

<svg
   xmlns:dc="http://purl.org/dc/elements/1.1/"
   xmlns:cc="http://creativecommons.org/ns#"
   xmlns:rdf="http://www.w3.org/1999/02/22-rdf-syntax-ns#"
   xmlns:svg="http://www.w3.org/2000/svg"
   xmlns="http://www.w3.org/2000/svg"
   xmlns:sodipodi="http://sodipodi.sourceforge.net/DTD/sodipodi-0.dtd"
   xmlns:inkscape="http://www.inkscape.org/namespaces/inkscape"
   width="61.988094mm"
   height="35.151787mm"
   viewBox="0 0 61.988094 35.151787"
   version="1.1"
   id="svg102"
   inkscape:version="0.92.1 r15371"
   sodipodi:docname="drole.svg">
  <defs
     id="defs96" />
  <sodipodi:namedview
     id="base"
     pagecolor="#ffffff"
     bordercolor="#666666"
     borderopacity="1.0"
     inkscape:pageopacity="0.0"
     inkscape:pageshadow="2"
     inkscape:zoom="2.8"
     inkscape:cx="73.667076"
     inkscape:cy="54.732641"
     inkscape:document-units="mm"
     inkscape:current-layer="g127"
     showgrid="false"
     inkscape:window-width="1366"
     inkscape:window-height="705"
     inkscape:window-x="-8"
     inkscape:window-y="-8"
     inkscape:window-maximized="1" />
  <metadata
     id="metadata99">
    <rdf:RDF>
      <cc:Work
         rdf:about="">
        <dc:format>image/svg+xml</dc:format>
        <dc:type
           rdf:resource="http://purl.org/dc/dcmitype/StillImage" />
        <dc:title />
      </cc:Work>
    </rdf:RDF>
  </metadata>
  <g
     inkscape:label="Calque 1"
     inkscape:groupmode="layer"
     id="layer1"
     transform="translate(-0.37797546,-101.20832)">
    <g
       id="g127">
      <ellipse
         ry="17.575893"
         rx="30.994047"
         cy="118.78422"
         cx="31.372023"
         id="path104"
         style="fill:#ffaaaa;fill-opacity:1;stroke:none;stroke-width:0.06699999;stroke-miterlimit:4;stroke-dasharray:none;stroke-opacity:1" />
      <path
         inkscape:connector-curvature="0"
         id="path108"
         d="m 2.1200061,134.53369 c 0.1377457,-0.35896 1.2024305,-1.91748 2.3659662,-3.46338 l 2.1155196,-2.81072 1.2851157,0.81857 c 0.706814,0.45021 1.2923154,0.92118 1.3011144,1.04659 0.013838,0.19724 -1.9505424,1.57047 -6.2024215,4.33591 -1.0048849,0.65358 -1.0908577,0.66084 -0.8652944,0.073 z"
         style="fill:#ffaaaa;fill-opacity:1;stroke:none;stroke-width:0.09571429;stroke-miterlimit:4;stroke-dasharray:none;stroke-opacity:1" />
      <path
         transform="scale(0.26458333)"
         inkscape:connector-curvature="0"
         id="path110"
         d="m 111.02421,515.03956 c -21.224199,-0.70931 -41.615849,-4.74537 -59.464282,-11.76961 -4.332957,-1.70523 -13.150446,-5.92537 -17.142857,-8.20476 l -1.964285,-1.12146 -11.575613,7.74023 c -10.461908,6.99553 -12.8571042,8.49053 -13.1665224,8.2181 -0.5402458,-0.47567 3.7075754,-6.93014 10.5218834,-15.98777 l 4.809398,-6.39269 -4.544667,-4.34417 C 7.5447266,472.70809 2.313017,462.62635 1.6786307,450.76717 0.69480988,432.37568 13.174037,414.81127 36.559928,401.67203 c 39.107729,-21.97246 101.437112,-25.2685 147.142862,-7.78106 24.63936,9.42725 42.21422,23.77654 48.7466,39.79997 2.38629,5.85338 2.84079,8.31233 2.82988,15.31036 -0.009,5.63492 -0.10398,6.60148 -0.96725,9.82143 -1.23153,4.59351 -4.84778,11.85072 -7.98706,16.0287 -8.44719,11.24213 -23.15951,21.48057 -41.01503,28.54273 -17.00658,6.7264 -37.98082,10.95116 -57.14286,11.51007 -3.53571,0.10313 -7.23214,0.22948 -8.21428,0.28077 -0.98215,0.0513 -5,-0.0141 -8.92858,-0.14544 z"
         style="fill:#ffffff;fill-opacity:1;stroke:none;stroke-width:0.09043869;stroke-miterlimit:4;stroke-dasharray:none;stroke-opacity:1" />
      <path
         style="font-style:normal;font-variant:normal;font-weight:normal;font-stretch:normal;font-size:7.60752344px;line-height:1.25;font-family:'Snap ITC';-inkscape-font-specification:'Snap ITC';text-align:start;letter-spacing:0px;word-spacing:0px;text-anchor:start;fill:#000000;fill-opacity:1;stroke:none;stroke-width:0.40754592"
         d="m 13.998458,112.67702 c -0.101732,1.1191 -0.203464,2.2382 -0.305197,3.3573 -0.03502,-1.18181 -0.13031,-1.66398 -0.667351,-0.48875 -1.0243,1.51781 -2.741047,0.79932 -3.197528,-1.38824 -0.6374477,-2.32886 0.489138,-5.25045 2.000182,-5.22371 0.725176,-0.0865 1.651669,0.9456 1.693378,0.22127 0.08848,0.80477 0.176964,1.60954 0.265445,2.41432 -0.444062,-1.722 -2.327322,-0.81592 -1.61102,1.07425 0.446943,1.00538 1.289473,0.58152 1.822091,0.0336 z m 1.337734,-0.61438 c -0.473584,0.008 -0.910177,-0.0537 -0.847634,-1.047 0.05042,-0.5394 -0.441616,-1.73018 0.0072,-1.79121 0.315755,0.0937 1.130973,-0.70746 0.983176,0.21667 -0.04757,0.87385 -0.09514,1.7477 -0.142716,2.62154 z m 4.985836,1.15135 c -0.08557,1.06589 -0.171139,2.13177 -0.256708,3.19766 -1.565918,-0.1161 -3.131835,-0.23221 -4.697754,-0.34831 0.411684,-0.24349 0.823367,-0.48698 1.235051,-0.73048 -0.146419,-1.77056 -0.292838,-3.54112 -0.439256,-5.31168 -0.305895,-0.23638 -1.190396,-0.62165 -0.3796,-0.57066 1.351125,-0.15648 2.70225,-0.31295 4.053375,-0.46943 0.09317,0.74016 0.186351,1.48031 0.279526,2.22046 -0.266755,-0.65973 -0.617281,-0.98171 -1.090667,-0.80831 -0.473962,-0.0801 -0.916126,-0.0922 -0.878544,0.92272 -0.285653,1.03105 0.551111,0.17065 0.869334,0.18407 0.343047,-1.02454 0.364737,-0.55596 0.363171,0.40477 0.02404,0.72343 0.04808,1.44686 0.07212,2.17029 -0.152405,-0.80867 -0.542361,-0.98848 -0.999976,-0.98917 -0.328759,-0.11831 -0.476425,1.29055 -0.457022,1.54566 0.522746,0.11121 1.045493,0.22242 1.568239,0.33363 0.252904,-0.58374 0.505809,-1.16748 0.758714,-1.75122 z m 3.696593,-4.07326 c 0.161632,0.86432 0.323262,1.72864 0.484893,2.59296 -0.264125,-0.8865 -1.995059,-1.91623 -1.369108,-0.12094 0.86266,0.56855 2.683729,1.40668 1.782738,3.54316 -0.973951,1.7544 -2.767929,1.5697 -3.813582,0.085 0.03287,1.08308 -0.01419,1.33379 -0.198544,0.15458 -0.132621,-0.80602 -0.610953,-2.29585 0.212092,-0.97667 0.685867,1.25425 2.207018,-0.54113 0.909708,-1.33488 -1.474428,-0.01 -2.248692,-3.61379 -0.45628,-4.05504 0.808014,-0.758 2.009218,1.19565 2.376196,0.74642 0.02396,-0.21154 0.04792,-0.42308 0.07189,-0.63463 z m 5.84153,-0.16931 c -0.461123,1.52868 -0.922247,3.05736 -1.38337,4.58604 -0.0599,-1.16586 -0.119797,-2.33172 -0.179695,-3.49758 -0.265265,1.78669 -0.53053,3.57337 -0.795795,5.36006 0.403127,0.32734 0.806253,0.65469 1.209379,0.98203 -0.870905,-0.079 -1.74181,-0.15802 -2.612715,-0.23704 0.352182,-0.27473 1.085943,-0.19839 0.728388,-1.12611 -0.280826,-1.6919 -0.561653,-3.3838 -0.84248,-5.07569 -0.09032,1.40935 -0.180646,2.8187 -0.27097,4.22806 -0.186351,-1.56093 -0.372702,-3.12187 -0.559053,-4.6828 1.568771,-0.17899 3.137541,-0.35798 4.706311,-0.53697 z m 8.773705,7.12578 c -1.144728,-0.0693 -2.289455,-0.13867 -3.434181,-0.20801 0.410313,-0.3017 0.769451,-0.66747 0.742076,-1.51713 0.143408,-1.12617 0.286815,-2.25235 0.430223,-3.37853 -0.424044,1.18522 -0.848087,2.37043 -1.27213,3.55564 -0.364145,-1.32389 -0.728289,-2.64778 -1.092435,-3.97167 0.145468,1.72057 0.290936,3.44115 0.436404,5.16172 0.192143,0.21655 1.266161,0.83256 0.641424,0.67908 -0.978226,-0.14735 -1.956454,-0.29469 -2.934681,-0.44204 0.496567,-0.20725 0.57347,-0.87782 0.560816,-1.64725 0.08498,-1.41982 0.169963,-2.83964 0.254944,-4.25946 -0.508592,-0.32074 -0.840497,-0.59665 -0.08963,-0.59784 0.713481,-0.14741 1.426963,-0.29483 2.140444,-0.44224 0.120748,0.88206 0.241496,1.76411 0.362243,2.64617 0.115043,-0.78531 0.230087,-1.57061 0.345129,-2.35591 0.869955,0.0855 1.739909,0.17092 2.609863,0.25639 -0.408143,0.25327 -0.992035,0.31718 -0.736631,1.28538 0.09247,1.50013 0.18494,3.00026 0.27741,4.50039 0.252905,0.2451 0.505809,0.49021 0.758715,0.73531 z m 4.506647,-2.88321 c -0.08557,1.06589 -0.171139,2.13177 -0.256708,3.19766 -1.565917,-0.1161 -3.131835,-0.23221 -4.697753,-0.34831 0.411683,-0.24349 0.823366,-0.48698 1.23505,-0.73048 -0.146419,-1.77056 -0.292838,-3.54112 -0.439256,-5.31168 -0.305894,-0.23638 -1.190396,-0.62165 -0.379599,-0.57066 1.351124,-0.15648 2.702249,-0.31295 4.053374,-0.46943 0.09318,0.74016 0.186351,1.48031 0.279526,2.22046 -0.266755,-0.65973 -0.617281,-0.98171 -1.090666,-0.80831 -0.473963,-0.0801 -0.916127,-0.0922 -0.878544,0.92272 -0.285653,1.03105 0.55111,0.17065 0.869333,0.18407 0.343047,-1.02454 0.364737,-0.55596 0.363172,0.40477 0.02404,0.72343 0.04808,1.44686 0.07212,2.17029 -0.152405,-0.80867 -0.542362,-0.98848 -0.999977,-0.98917 -0.328759,-0.11831 -0.476425,1.29055 -0.457022,1.54566 0.522747,0.11121 1.045493,0.22242 1.568239,0.33363 0.252905,-0.58374 0.50581,-1.16748 0.758714,-1.75122 z m 6.651587,2.88321 c -1.144727,-0.0693 -2.289454,-0.13867 -3.43418,-0.20801 0.410313,-0.3017 0.769451,-0.66747 0.742076,-1.51713 0.143408,-1.12617 0.286815,-2.25235 0.430223,-3.37853 -0.424044,1.18522 -0.848087,2.37043 -1.27213,3.55564 -0.364145,-1.32389 -0.72829,-2.64778 -1.092435,-3.97167 0.145468,1.72057 0.290936,3.44115 0.436404,5.16172 0.192143,0.21655 1.266161,0.83256 0.641424,0.67908 -0.978226,-0.14735 -1.956454,-0.29469 -2.934681,-0.44204 0.496567,-0.20725 0.573469,-0.87782 0.560816,-1.64725 0.08498,-1.41982 0.169963,-2.83964 0.254944,-4.25946 -0.508592,-0.32074 -0.840497,-0.59665 -0.08963,-0.59784 0.713481,-0.14741 1.426962,-0.29483 2.140444,-0.44224 0.120748,0.88206 0.241496,1.76411 0.362243,2.64617 0.115043,-0.78531 0.230087,-1.57061 0.345129,-2.35591 0.869955,0.0855 1.739909,0.17092 2.609863,0.25639 -0.408143,0.25327 -0.992035,0.31718 -0.736631,1.28538 0.09247,1.50013 0.18494,3.00026 0.27741,4.50039 0.252904,0.2451 0.505809,0.49021 0.758714,0.73531 z m 4.506648,-2.88321 c -0.08557,1.06589 -0.171139,2.13177 -0.256708,3.19766 -1.565917,-0.1161 -3.131835,-0.23221 -4.697753,-0.34831 0.411683,-0.24349 0.823366,-0.48698 1.23505,-0.73048 -0.146419,-1.77056 -0.292838,-3.54112 -0.439256,-5.31168 -0.305894,-0.23638 -1.190396,-0.62165 -0.3796,-0.57066 1.351125,-0.15648 2.70225,-0.31295 4.053374,-0.46943 0.09318,0.74016 0.186351,1.48031 0.279527,2.22046 -0.266755,-0.65973 -0.617281,-0.98171 -1.090666,-0.80831 -0.473963,-0.0801 -0.916127,-0.0922 -0.878544,0.92272 -0.285654,1.03105 0.55111,0.17065 0.869333,0.18407 0.343047,-1.02454 0.364737,-0.55596 0.363171,0.40477 0.02404,0.72343 0.04808,1.44686 0.07212,2.17029 -0.152405,-0.80867 -0.542363,-0.98848 -0.999977,-0.98917 -0.328759,-0.11831 -0.476425,1.29055 -0.457022,1.54566 0.522746,0.11121 1.045492,0.22242 1.568238,0.33363 0.252906,-0.58374 0.505811,-1.16748 0.758715,-1.75122 z"
         id="text114"
         inkscape:connector-curvature="0" />
      <path
         style="font-style:normal;font-variant:normal;font-weight:normal;font-stretch:normal;font-size:7.55921602px;line-height:1.25;font-family:'Snap ITC';-inkscape-font-specification:'Snap ITC';text-align:start;letter-spacing:0px;word-spacing:0px;text-anchor:start;fill:#000000;fill-opacity:1;stroke:none;stroke-width:0.40495801"
         d="m 14.415293,122.4884 c 0.730844,0.0226 1.197003,-3.17415 0.235894,-2.02996 -0.07863,0.67666 -0.157263,1.35331 -0.235894,2.02996 z m -1.619566,-2.81595 c 1.092691,-0.15698 2.186531,-0.67619 3.280859,-0.43722 1.409363,0.37044 1.582165,4.58241 0.276257,5.46877 -0.55036,0.81648 -1.682339,-0.59127 -1.786769,-0.31525 0.115971,0.60162 -0.02084,1.52789 0.381606,1.76158 0.168623,0.25711 0.961378,0.90179 0.361488,0.68166 -0.811764,-0.14353 -1.623529,-0.28706 -2.435293,-0.43059 0.373383,-0.26715 0.451287,-0.86907 0.454651,-1.55545 0.106251,-1.49363 0.212502,-2.98726 0.318753,-4.48089 -0.283851,-0.23086 -0.567702,-0.46174 -0.851552,-0.69261 z m 7.138488,2.86651 c -0.124859,-0.67239 -0.249717,-1.34478 -0.374576,-2.01717 -0.121266,0.82911 -0.242531,1.65822 -0.363796,2.48733 0.246124,-0.15672 0.492247,-0.31344 0.738372,-0.47016 z m 2.174692,2.90189 c -0.783285,0.455 -1.566569,0.91 -2.349854,1.365 0.17844,-0.54358 0.48924,-1.04158 0.585459,-1.61348 -0.039,-0.80271 -0.218793,-1.22595 -0.66092,-0.94207 -0.455311,-0.21665 -0.46564,0.66666 -0.598414,1.2473 0.197378,0.53548 0.520647,0.78525 -0.09193,0.72682 -0.701381,0.0944 -1.402761,0.18877 -2.104141,0.28315 0.29525,-0.46001 0.722697,-0.75353 0.720912,-1.58764 0.242961,-1.77275 0.485922,-3.5455 0.728883,-5.31825 -0.450675,-0.45333 -0.533709,-0.68985 0.03896,-0.53969 0.887071,0.0552 1.774142,0.11038 2.661213,0.16557 -0.24062,0.2999 -0.942579,0.23068 -0.622986,0.97879 0.393603,1.64878 0.787205,3.29755 1.180807,4.94633 0.17067,0.0961 0.34134,0.19211 0.51201,0.28817 z m 3.117866,-6.27395 c 0.152705,0.90326 0.305409,1.80652 0.458114,2.70978 -0.276065,-1.13494 -2.047172,-1.82432 -1.195306,-0.003 0.834059,0.43153 2.409573,1.48969 1.586092,3.57926 -0.924426,1.82925 -2.610467,1.64818 -3.602971,0.0889 3.69e-4,0.65583 0.0366,1.72478 -0.125398,0.5102 -0.118989,-0.6672 -0.237979,-1.33439 -0.356968,-2.00159 0.400164,1.30461 2.385789,1.53091 1.638935,-0.52009 -0.83584,-0.40003 -2.342866,-1.71669 -1.523734,-3.68361 0.834206,-1.49357 2.195498,-0.90597 3.01614,0.34631 0.03503,-0.3421 0.07006,-0.68419 0.105096,-1.02628 z m 5.120094,4.89884 c 1.013845,-0.2743 0.8273,-3.84454 0.207206,-3.41528 -0.06907,1.13842 -0.138137,2.27685 -0.207206,3.41528 z m -1.126421,-4.20623 c -0.137914,-0.26084 -0.924926,-0.96183 -0.567243,-0.88659 1.050272,0.25885 2.1209,0.30807 3.154575,0.73966 1.443232,0.76959 1.484303,4.9946 0.141307,6.06731 -1.079569,0.95283 -2.307212,0.68842 -3.464315,0.93496 0.387151,-0.26963 0.774302,-0.53926 1.161453,-0.80889 -0.141926,-2.01548 -0.283851,-4.03097 -0.425777,-6.04645 z m 5.481195,2.73506 c 1.298653,1.14624 0.08209,-3.2979 0.05451,-0.90719 -0.01817,0.30239 -0.03634,0.60479 -0.05451,0.90719 z m 2.842999,3.51867 c -0.601836,0.37917 -1.203671,0.75833 -1.805506,1.1375 0.312737,-0.59534 0.139268,-1.09874 -0.142969,-1.58159 -0.220924,-0.50414 -0.441848,-1.00827 -0.662772,-1.51241 -0.496656,-0.30931 -0.123482,1.14127 -0.186161,1.71381 0.09529,0.2892 0.812749,1.08334 0.438227,0.97567 -0.703823,-0.14827 -1.407646,-0.29654 -2.111469,-0.44482 0.373383,-0.26715 0.451287,-0.86907 0.45465,-1.55545 0.106251,-1.49363 0.212502,-2.98726 0.318753,-4.48089 -0.182923,-0.22119 -0.913888,-0.59516 -0.739367,-0.71672 1.126799,-0.14954 2.26087,-0.7448 3.386321,-0.3639 1.120647,0.33733 1.285185,3.58933 0.264005,4.40482 -0.700652,0.32976 -0.849409,0.53763 -0.192511,1.17299 0.326266,0.417 0.652533,0.83399 0.978799,1.25099 z m 2.468425,-5.78862 c -0.82677,1.64476 1.134813,3.07196 0.996903,1.05883 -0.228174,-0.60404 -0.596493,-1.03724 -0.996903,-1.05883 z m 2.048038,2.639 c 0.03203,3.5443 -2.812365,5.12661 -3.917882,2.36245 -0.832931,-1.77354 -0.410654,-4.75292 0.722202,-5.68806 1.026741,-1.10867 2.56457,-0.53365 3.009992,1.68279 0.122735,0.51504 0.186465,1.07865 0.185688,1.64282 z m 4.07721,4.01917 c -0.19641,-0.63703 -0.470031,-0.93672 -0.86039,-0.72642 -1.044428,0.10733 -2.088855,0.21465 -3.133283,0.32198 0.321161,-0.34603 0.613856,-0.72131 0.515254,-1.49875 0.03754,-1.63723 0.07509,-3.27447 0.112631,-4.9117 -0.200546,-0.16416 -1.062181,-0.44046 -0.452363,-0.46716 0.784062,-0.16109 1.568125,-0.32219 2.352187,-0.48329 -0.187628,0.44162 -0.742733,0.60799 -0.659088,1.25281 0.142446,1.44621 0.284891,2.89243 0.427336,4.33864 0.318165,-0.35839 0.716069,-0.57583 0.987282,-1.01722 0.131743,-0.46057 0.320233,-1.82895 0.347113,-0.612 0.121107,1.2677 0.242214,2.53541 0.363321,3.80311 z m 4.419449,-3.55911 c -0.08084,1.11391 -0.161688,2.22782 -0.242531,3.34173 -1.479437,-0.12134 -2.958875,-0.24267 -4.438312,-0.36401 0.388947,-0.25446 0.777895,-0.50892 1.166842,-0.76338 -0.138332,-1.85034 -0.276665,-3.70067 -0.414997,-5.55101 -0.15609,-0.18609 -1.044668,-0.58069 -0.526532,-0.57486 1.332472,-0.1707 2.664944,-0.34139 3.997416,-0.51209 0.08803,0.77351 0.17606,1.54701 0.264089,2.32051 -0.236734,-0.46682 -0.442628,-1.07118 -0.834461,-0.84626 -0.281212,0.13915 -0.79368,-0.26929 -0.92996,0.21306 -0.0314,0.55496 -0.377204,1.69599 0.159516,1.19196 0.362666,-0.10532 0.713136,-0.24327 0.843127,-0.97106 0.07998,0.24481 0.04896,1.27258 0.08598,1.8204 -0.03351,0.32957 0.152799,1.94406 -0.04275,1.3265 -0.113854,-0.77707 -0.531952,-0.66322 -0.874538,-0.7705 -0.332047,-0.0362 -0.291006,1.09423 -0.465626,1.55029 0.28589,0.2016 0.75385,0.19622 1.109524,0.31849 0.409637,0.35266 0.596851,-0.26495 0.794149,-0.83856 0.116355,-0.29707 0.232711,-0.59414 0.349066,-0.89121 z"
         id="text118"
         inkscape:connector-curvature="0" />
    </g>
  </g>
</svg>
