<?xml version="1.0" encoding="UTF-8" standalone="no"?>
<!-- Created with Inkscape (http://www.inkscape.org/) -->

<svg
   xmlns:dc="http://purl.org/dc/elements/1.1/"
   xmlns:cc="http://creativecommons.org/ns#"
   xmlns:rdf="http://www.w3.org/1999/02/22-rdf-syntax-ns#"
   xmlns:svg="http://www.w3.org/2000/svg"
   xmlns="http://www.w3.org/2000/svg"
   xmlns:sodipodi="http://sodipodi.sourceforge.net/DTD/sodipodi-0.dtd"
   xmlns:inkscape="http://www.inkscape.org/namespaces/inkscape"
   width="61.988094mm"
   height="35.151787mm"
   viewBox="0 0 61.988094 35.151787"
   version="1.1"
   id="svg102"
   inkscape:version="0.92.1 r15371"
   sodipodi:docname="drole.svg">
  <defs
     id="defs96" />
  <sodipodi:namedview
     id="base"
     pagecolor="#ffffff"
     bordercolor="#666666"
     borderopacity="1.0"
     inkscape:pageopacity="0.0"
     inkscape:pageshadow="2"
     inkscape:zoom="2.8"
     inkscape:cx="134.20279"
     inkscape:cy="54.732641"
     inkscape:document-units="mm"
     inkscape:current-layer="layer1"
     showgrid="false"
     inkscape:window-width="1366"
     inkscape:window-height="705"
     inkscape:window-x="-8"
     inkscape:window-y="-8"
     inkscape:window-maximized="1" />
  <metadata
     id="metadata99">
    <rdf:RDF>
      <cc:Work
         rdf:about="">
        <dc:format>image/svg+xml</dc:format>
        <dc:type
           rdf:resource="http://purl.org/dc/dcmitype/StillImage" />
        <dc:title></dc:title>
      </cc:Work>
    </rdf:RDF>
  </metadata>
  <g
     inkscape:label="Calque 1"
     inkscape:groupmode="layer"
     id="layer1"
     transform="translate(-0.37797546,-101.20832)">
    <g
       id="g127">
      <ellipse
         ry="17.575893"
         rx="30.994047"
         cy="118.78422"
         cx="31.372023"
         id="path104"
         style="fill:#ffaaaa;fill-opacity:1;stroke:none;stroke-width:0.06699999;stroke-miterlimit:4;stroke-dasharray:none;stroke-opacity:1" />
      <path
         inkscape:connector-curvature="0"
         id="path108"
         d="m 2.1200061,134.53369 c 0.1377457,-0.35896 1.2024305,-1.91748 2.3659662,-3.46338 l 2.1155196,-2.81072 1.2851157,0.81857 c 0.706814,0.45021 1.2923154,0.92118 1.3011144,1.04659 0.013838,0.19724 -1.9505424,1.57047 -6.2024215,4.33591 -1.0048849,0.65358 -1.0908577,0.66084 -0.8652944,0.073 z"
         style="fill:#ffaaaa;fill-opacity:1;stroke:none;stroke-width:0.09571429;stroke-miterlimit:4;stroke-dasharray:none;stroke-opacity:1" />
      <path
         transform="scale(0.26458333)"
         inkscape:connector-curvature="0"
         id="path110"
         d="m 111.02421,515.03956 c -21.224199,-0.70931 -41.615849,-4.74537 -59.464282,-11.76961 -4.332957,-1.70523 -13.150446,-5.92537 -17.142857,-8.20476 l -1.964285,-1.12146 -11.575613,7.74023 c -10.461908,6.99553 -12.8571042,8.49053 -13.1665224,8.2181 -0.5402458,-0.47567 3.7075754,-6.93014 10.5218834,-15.98777 l 4.809398,-6.39269 -4.544667,-4.34417 C 7.5447266,472.70809 2.313017,462.62635 1.6786307,450.76717 0.69480988,432.37568 13.174037,414.81127 36.559928,401.67203 c 39.107729,-21.97246 101.437112,-25.2685 147.142862,-7.78106 24.63936,9.42725 42.21422,23.77654 48.7466,39.79997 2.38629,5.85338 2.84079,8.31233 2.82988,15.31036 -0.009,5.63492 -0.10398,6.60148 -0.96725,9.82143 -1.23153,4.59351 -4.84778,11.85072 -7.98706,16.0287 -8.44719,11.24213 -23.15951,21.48057 -41.01503,28.54273 -17.00658,6.7264 -37.98082,10.95116 -57.14286,11.51007 -3.53571,0.10313 -7.23214,0.22948 -8.21428,0.28077 -0.98215,0.0513 -5,-0.0141 -8.92858,-0.14544 z"
         style="fill:#ffffff;fill-opacity:1;stroke:none;stroke-width:0.09043869;stroke-miterlimit:4;stroke-dasharray:none;stroke-opacity:1" />
      <text
         transform="scale(0.7678622,1.302317)"
         id="text114"
         y="89.220947"
         x="12.402205"
         style="font-style:normal;font-variant:normal;font-weight:normal;font-stretch:normal;font-size:7.60752344px;line-height:1.25;font-family:'Snap ITC';-inkscape-font-specification:'Snap ITC';text-align:start;letter-spacing:0px;word-spacing:0px;text-anchor:start;fill:#000000;fill-opacity:1;stroke:none;stroke-width:0.40754592"
         xml:space="preserve"><tspan
           style="stroke-width:0.40754592"
           y="89.220947"
           x="12.402205"
           id="tspan112"
           sodipodi:role="line">C'EST MEME</tspan></text>
      <text
         transform="scale(0.73009179,1.3696908)"
         id="text118"
         y="92.384285"
         x="17.611082"
         style="font-style:normal;font-variant:normal;font-weight:normal;font-stretch:normal;font-size:7.55921602px;line-height:1.25;font-family:'Snap ITC';-inkscape-font-specification:'Snap ITC';text-align:start;letter-spacing:0px;word-spacing:0px;text-anchor:start;fill:#000000;fill-opacity:1;stroke:none;stroke-width:0.40495801"
         xml:space="preserve"><tspan
           style="stroke-width:0.40495801"
           y="92.384285"
           x="17.611082"
           id="tspan116"
           sodipodi:role="line">PAS DROLE</tspan></text>
    </g>
  </g>
</svg>
