<?xml version="1.0" encoding="UTF-8" standalone="no"?>
<!-- Created with Inkscape (http://www.inkscape.org/) -->

<svg
   xmlns:dc="http://purl.org/dc/elements/1.1/"
   xmlns:cc="http://creativecommons.org/ns#"
   xmlns:rdf="http://www.w3.org/1999/02/22-rdf-syntax-ns#"
   xmlns:svg="http://www.w3.org/2000/svg"
   xmlns="http://www.w3.org/2000/svg"
   xmlns:sodipodi="http://sodipodi.sourceforge.net/DTD/sodipodi-0.dtd"
   xmlns:inkscape="http://www.inkscape.org/namespaces/inkscape"
   width="55.569389mm"
   height="13.477213mm"
   viewBox="0 0 55.569389 13.477213"
   version="1.1"
   id="svg43"
   inkscape:version="0.92.1 r15371"
   sodipodi:docname="espace.svg">
  <defs
     id="defs37" />
  <sodipodi:namedview
     id="base"
     pagecolor="#ffffff"
     bordercolor="#666666"
     borderopacity="1.0"
     inkscape:pageopacity="0.0"
     inkscape:pageshadow="2"
     inkscape:zoom="0.49497475"
     inkscape:cx="-512.10938"
     inkscape:cy="-107.89064"
     inkscape:document-units="mm"
     inkscape:current-layer="layer1"
     showgrid="false"
     inkscape:window-width="1366"
     inkscape:window-height="705"
     inkscape:window-x="-8"
     inkscape:window-y="-8"
     inkscape:window-maximized="1" />
  <metadata
     id="metadata40">
    <rdf:RDF>
      <cc:Work
         rdf:about="">
        <dc:format>image/svg+xml</dc:format>
        <dc:type
           rdf:resource="http://purl.org/dc/dcmitype/StillImage" />
        <dc:title />
      </cc:Work>
    </rdf:RDF>
  </metadata>
  <g
     inkscape:label="Calque 1"
     inkscape:groupmode="layer"
     id="layer1"
     transform="translate(-39.300664,-106.81005)">
    <path
       style="font-style:normal;font-variant:normal;font-weight:normal;font-stretch:normal;font-size:14.11111069px;line-height:1.25;font-family:'Snap ITC';-inkscape-font-specification:'Snap ITC';text-align:start;letter-spacing:0px;word-spacing:0px;text-anchor:start;fill:#89a02c;fill-opacity:1;stroke:none;stroke-width:0.26458332"
       d="m 51.268926,112.83897 c -0.206706,1.51814 -0.413412,3.03628 -0.620118,4.55442 -3.782714,-0.16537 -7.565429,-0.33073 -11.348144,-0.4961 0.994484,-0.3468 1.988969,-0.69361 2.983453,-1.04042 -0.353697,-2.52181 -0.707393,-5.04362 -1.061089,-7.56543 -0.640788,-0.24804 -1.281576,-0.49609 -1.922364,-0.74414 3.598977,-0.24575 7.197953,-0.4915 10.796929,-0.73725 0.22508,1.0542 0.450159,2.1084 0.675239,3.1626 -0.554821,-0.40918 -0.881048,-1.36179 -1.6949,-1.15518 -0.916424,0.004 -1.832849,0.008 -2.749273,0.0114 -0.167661,0.7005 -0.335323,1.40101 -0.502984,2.10151 0.792213,-0.24227 1.723,-0.28694 2.432529,-0.64712 0.429251,-0.77089 0.794804,-1.30226 0.691976,-0.0724 0.07241,1.28486 0.144825,2.56972 0.217237,3.85457 -0.407331,-0.53429 -0.590023,-1.41922 -1.431078,-1.27652 -0.649259,-0.009 -1.623028,-0.55841 -1.66087,0.45196 -0.02343,0.5369 -1.061256,1.6885 -0.140418,1.6532 1.167028,0.14639 2.334056,0.29277 3.501084,0.43916 0.61093,-0.83142 1.22186,-1.66283 1.832791,-2.49425 z m 7.923719,-3.10748 c -0.436379,0.83142 -0.872758,1.66284 -1.309136,2.49425 -0.491046,-1.25949 -3.930749,-1.14482 -2.41329,0.27044 1.72283,0.31417 5.357117,0.20091 4.426733,2.97872 -1.25541,2.12517 -4.375781,2.10231 -6.395605,1.18985 -0.74472,-1.07073 -1.638946,0.35846 -2.004632,0.44747 0.284657,-0.88928 0.569314,-1.77856 0.85397,-2.66783 0.666528,1.44596 4.570577,1.66568 2.969673,-0.3527 -1.671597,-0.10895 -4.359761,-1.11985 -2.987652,-3.21718 1.316908,-1.56274 4.038547,-1.57155 5.564583,-0.3093 0.431785,-0.27791 0.863571,-0.55581 1.295356,-0.83372 z m 3.803386,3.68626 c 1.605239,1.99291 3.100527,-2.86085 1.107598,-1.57958 -0.497767,0.41773 -0.908913,0.95538 -1.107598,1.57958 z m -0.737251,2.37022 c 0.367477,1.25402 0.734954,2.50803 1.102431,3.76205 1.009238,0.3595 1.035005,0.53958 -0.06895,0.51358 -1.054184,0.0746 -2.108369,0.14911 -3.162554,0.22367 0.629314,-0.45547 0.713893,-1.12705 0.662669,-1.85251 0.09836,-2.64156 0.196712,-5.28312 0.295068,-7.92467 -1.012245,-0.35846 -1.009829,-0.54309 0.08038,-0.54136 0.806918,-0.0791 1.613837,-0.15816 2.420756,-0.23724 -0.132493,0.42323 -1.162045,2.24869 -0.434943,1.32163 1.231807,-1.6097 4.107398,-1.88996 5.100894,0.11369 1.364904,2.44031 -0.403217,6.48256 -3.490312,6.08059 -1.009986,-0.0869 -1.849438,-0.73136 -2.505446,-1.45943 z m 10.714246,-4.36149 c -1.648808,1.38224 1.78678,3.56935 1.678622,1.68595 -0.421805,-0.67086 -0.93941,-1.3473 -1.678622,-1.68595 z m 4.823133,-1.44005 c -0.815714,0.19361 -1.222308,0.64013 -0.976035,1.49023 0.05663,1.5818 0.113255,3.1636 0.169883,4.74539 1.022417,0.55712 0.632681,0.73189 -0.342404,0.74819 -0.537514,-0.0631 -1.768278,0.49044 -1.842292,0.015 0.05435,-0.49083 0.785817,-2.49407 0.132711,-1.39106 -1.053466,1.71854 -3.936285,2.33611 -5.108215,0.40716 -1.252722,-1.99764 -0.617516,-5.42111 1.793172,-6.21043 1.513305,-0.84155 3.529354,1.65765 3.575942,1.66458 0.04478,-0.50654 -0.639825,-1.67808 -0.138177,-1.76806 0.911805,0.0997 1.82361,0.19933 2.735415,0.29899 z m 8.137315,7.29671 c -0.429843,-0.7856 -0.68741,-2.16225 -1.581298,-0.86472 -2.069069,1.70211 -6.000994,0.70025 -6.202141,-2.21659 -0.354142,-2.46902 1.966311,-4.9637 4.491651,-4.34631 1.21835,0.20583 2.335128,1.77459 2.347832,-0.16537 0.133211,1.01516 0.266421,2.03031 0.399631,3.04547 -1.464872,-2.03302 -3.81252,1.25609 -1.438327,1.85777 1.252411,-0.10949 1.877431,-1.2892 1.767726,0.49663 0.07164,0.73104 0.143284,1.46208 0.214926,2.19312 z m 2.080838,-4.95404 c 1.148737,1.45199 3.533621,-1.01805 1.718672,-1.47752 -0.768468,0.18539 -1.413742,0.75082 -1.718672,1.47752 z m 6.85574,4.9127 c -0.352988,-1.45383 -1.173013,-0.93865 -2.223809,-0.35775 -2.238891,0.82751 -5.649732,0.34303 -6.255432,-2.35741 -0.589641,-2.57079 1.786772,-5.19604 4.416935,-4.78384 1.807711,-0.10272 4.259835,1.54038 3.190697,3.54403 -0.57081,1.81971 -4.182859,1.50818 -4.256415,1.54987 1.497595,1.35577 4.178537,0.27348 4.891545,-0.51574 0.07883,0.97361 0.157653,1.94723 0.236479,2.92084 z"
       id="text47"
       inkscape:connector-curvature="0" />
  </g>
</svg>
