<?xml version="1.0" encoding="UTF-8" standalone="no"?>
<!-- Created with Inkscape (http://www.inkscape.org/) -->

<svg
   xmlns:dc="http://purl.org/dc/elements/1.1/"
   xmlns:cc="http://creativecommons.org/ns#"
   xmlns:rdf="http://www.w3.org/1999/02/22-rdf-syntax-ns#"
   xmlns:svg="http://www.w3.org/2000/svg"
   xmlns="http://www.w3.org/2000/svg"
   xmlns:sodipodi="http://sodipodi.sourceforge.net/DTD/sodipodi-0.dtd"
   xmlns:inkscape="http://www.inkscape.org/namespaces/inkscape"
   width="76.763618mm"
   height="11.623752mm"
   viewBox="0 0 76.763618 11.623752"
   version="1.1"
   id="svg8"
   inkscape:version="0.92.1 r15371"
   sodipodi:docname="GameOver.svg">
  <defs
     id="defs2" />
  <sodipodi:namedview
     id="base"
     pagecolor="#ffffff"
     bordercolor="#666666"
     borderopacity="1.0"
     inkscape:pageopacity="0.0"
     inkscape:pageshadow="2"
     inkscape:zoom="0.7"
     inkscape:cx="-44.510327"
     inkscape:cy="-144.74702"
     inkscape:document-units="mm"
     inkscape:current-layer="layer1"
     showgrid="false"
     inkscape:window-width="1366"
     inkscape:window-height="705"
     inkscape:window-x="-8"
     inkscape:window-y="-8"
     inkscape:window-maximized="1" />
  <metadata
     id="metadata5">
    <rdf:RDF>
      <cc:Work
         rdf:about="">
        <dc:format>image/svg+xml</dc:format>
        <dc:type
           rdf:resource="http://purl.org/dc/dcmitype/StillImage" />
        <dc:title />
      </cc:Work>
    </rdf:RDF>
  </metadata>
  <g
     inkscape:label="Calque 1"
     inkscape:groupmode="layer"
     id="layer1"
     transform="translate(-53.5358,-98.911933)">
    <path
       style="font-style:normal;font-variant:normal;font-weight:normal;font-stretch:normal;font-size:14.11111069px;line-height:1.25;font-family:'Showcard Gothic';-inkscape-font-specification:'Showcard Gothic';text-align:start;letter-spacing:0px;word-spacing:0px;text-anchor:start;fill:#000000;fill-opacity:1;stroke:none;stroke-width:0.26458332"
       d="m 62.789326,105.37493 c -0.253543,2.33138 0.386437,5.66071 -3.031684,4.78179 -3.116047,0.28807 -6.502399,-2.02037 -6.221842,-5.38813 -0.3002,-3.47233 3.146432,-6.032721 6.413476,-5.578466 2.069033,-0.606165 1.65891,1.317056 1.82933,2.617166 0.358386,1.58384 0.17005,2.22328 -1.6532,1.74131 -3.467927,-0.10414 -2.452964,5.68264 0.01412,4.30728 -0.05637,-1.28086 -0.791122,-3.01437 1.125861,-2.48095 0.507981,0 1.015963,0 1.523944,0 z m 8.778103,4.52686 c -1.256312,0 -2.512623,0 -3.768934,0 -0.09537,-2.28936 -2.272411,1.5513 -2.485637,-0.9319 -0.332074,-0.53194 -0.544827,1.74152 -1.964214,0.9319 -1.199452,-0.89384 0.935475,-4.39349 0.901941,-6.26588 0.758572,-1.40551 -0.251967,-4.819656 2.047833,-4.317456 0.966261,0 1.932523,0 2.898785,0 0.682644,3.551026 1.516958,7.070116 2.370226,10.583336 z m -4.347711,-2.25999 c -0.45571,-1.95453 -1.218966,-3.06166 -1.65709,-0.51159 -0.91481,1.53777 0.963316,0.51669 1.65709,0.51159 z m 15.737195,-8.323346 c -0.218109,3.524206 -0.382039,7.052316 -0.427191,10.583336 -0.734217,-0.20503 -2.274476,0.41328 -2.500841,-0.31049 -0.02077,-0.97826 -0.04154,-1.95653 -0.06231,-2.93479 -0.810746,1.16674 -1.621492,2.33347 -2.432238,3.50021 -0.875054,-1.15755 -1.750108,-2.3151 -2.625162,-3.47265 -0.02297,1.07257 -0.04594,2.14514 -0.0689,3.21772 -1.228765,-0.0984 -3.203576,0.57554 -2.529239,-1.48958 -0.09141,-3.03467 -0.219141,-6.06897 -0.488665,-9.093756 1.316027,0 2.632053,0 3.94808,0 0.663315,1.448266 1.744774,5.012896 2.662197,1.929146 0.349397,-1.773544 1.461314,-2.200855 3.087695,-1.929146 0.478859,0 0.957718,0 1.436576,0 z m 7.792807,0 c -0.09876,1.453826 -0.197519,2.907656 -0.296278,4.361486 -1.26846,-0.8535 -3.471178,0.27055 -2.03476,1.10803 1.758191,-0.31552 2.39023,0.0879 1.621348,1.88232 -1.425009,-0.87627 -2.927835,0.49356 -1.857767,1.39052 1.375738,0.0152 3.118781,-0.7416 2.088589,1.25531 -0.203982,1.15105 -1.98345,0.34683 -2.922461,0.58567 -1.12391,0 -2.247819,0 -3.371728,0 -0.140032,-3.52848 -0.224454,-7.05984 -0.468533,-10.583336 2.413863,0 4.827727,0 7.24159,0 z m 12.66417,5.064286 c 0.30326,3.22006 -2.65089,6.97006 -6.096418,5.62143 -3.670583,-1.6136 -4.247642,-7.32531 -1.511967,-10.026626 2.459252,-2.26944 6.959615,-0.748563 7.419445,2.621396 0.13528,0.58427 0.18883,1.18501 0.18894,1.7838 z m -3.31418,1.21268 c -0.341767,-4.33448 -4.599403,0.43263 -1.570534,2.15792 1.115301,0.255 1.540644,-1.32588 1.570534,-2.15792 z m 12.73307,-6.276966 c -1.17698,3.506106 -2.35411,7.014056 -3.32796,10.583336 -1.24839,-0.0783 -3.01078,0.53458 -2.83122,-1.45825 -0.90099,-3.06543 -1.86515,-6.11201 -2.92898,-9.125086 1.62379,0 3.24757,0 4.87136,0 0.19525,1.402276 0.82791,6.344976 1.33605,2.479396 -0.0169,-1.908246 0.60468,-2.920374 2.50157,-2.479396 0.12639,0 0.25279,0 0.37918,0 z m 7.62744,0 c -0.0988,1.453826 -0.19752,2.907656 -0.29628,4.361486 -1.26846,-0.8535 -3.47117,0.27055 -2.03476,1.10803 1.7582,-0.31552 2.39023,0.0879 1.62135,1.88232 -1.42501,-0.87627 -2.92783,0.49356 -1.85776,1.39052 1.37573,0.0152 3.11878,-0.7416 2.08858,1.25531 -0.20398,1.15105 -1.98345,0.34683 -2.92246,0.58567 -1.12391,0 -2.24782,0 -3.37172,0 -0.14004,-3.52848 -0.22446,-7.05984 -0.46854,-10.583336 2.41387,0 4.82773,0 7.24159,0 z m 9.8392,3.961856 c 0.61189,2.4937 -3.83616,3.21815 -1.07315,5.02037 2.32983,0.95484 -1.61942,2.45978 -2.22553,1.79059 -0.95612,-1.3986 -1.77589,-3.75213 -1.55946,-0.8937 0.2782,1.27353 -1.44286,0.48986 -2.194,0.70422 -2.33618,0.68159 -1.74116,-1.71303 -1.85386,-3.34993 0.23657,-2.2892 -0.84478,-5.67948 0.121,-7.280238 2.75325,-0.156677 6.32932,-0.697768 8.21911,1.814058 0.41425,0.65 0.56787,1.43279 0.56589,2.19463 z m -3.12815,1.48828 c -0.63146,-2.08237 -2.15902,-0.7236 -1.60637,0.90209 -0.2099,1.01488 1.92708,-0.22772 1.60637,-0.90209 z"
       id="text12"
       inkscape:connector-curvature="0" />
  </g>
</svg>
