<?xml version="1.0" encoding="UTF-8" standalone="no"?>
<!-- Created with Inkscape (http://www.inkscape.org/) -->

<svg
   xmlns:dc="http://purl.org/dc/elements/1.1/"
   xmlns:cc="http://creativecommons.org/ns#"
   xmlns:rdf="http://www.w3.org/1999/02/22-rdf-syntax-ns#"
   xmlns:svg="http://www.w3.org/2000/svg"
   xmlns="http://www.w3.org/2000/svg"
   xmlns:sodipodi="http://sodipodi.sourceforge.net/DTD/sodipodi-0.dtd"
   xmlns:inkscape="http://www.inkscape.org/namespaces/inkscape"
   width="59.059959mm"
   height="13.361458mm"
   viewBox="0 0 59.059959 13.361458"
   version="1.1"
   id="svg3753"
   inkscape:version="0.92.1 r15371"
   sodipodi:docname="nomBianca.svg">
  <defs
     id="defs3747" />
  <sodipodi:namedview
     id="base"
     pagecolor="#ffffff"
     bordercolor="#666666"
     borderopacity="1.0"
     inkscape:pageopacity="0.0"
     inkscape:pageshadow="2"
     inkscape:zoom="0.35"
     inkscape:cx="-341.2478"
     inkscape:cy="-180.46428"
     inkscape:document-units="mm"
     inkscape:current-layer="layer1"
     showgrid="false"
     inkscape:window-width="1366"
     inkscape:window-height="705"
     inkscape:window-x="-8"
     inkscape:window-y="-8"
     inkscape:window-maximized="1" />
  <metadata
     id="metadata3750">
    <rdf:RDF>
      <cc:Work
         rdf:about="">
        <dc:format>image/svg+xml</dc:format>
        <dc:type
           rdf:resource="http://purl.org/dc/dcmitype/StillImage" />
        <dc:title />
      </cc:Work>
    </rdf:RDF>
  </metadata>
  <g
     inkscape:label="Calque 1"
     inkscape:groupmode="layer"
     id="layer1"
     transform="translate(-67.987885,-87.724034)">
    <path
       style="font-style:normal;font-variant:normal;font-weight:normal;font-stretch:normal;font-size:16.93333244px;line-height:1.25;font-family:'Showcard Gothic';-inkscape-font-specification:'Showcard Gothic';text-align:start;letter-spacing:0px;word-spacing:0px;text-anchor:start;fill:#000000;fill-opacity:1;stroke:none;stroke-width:0.26458332"
       d="m 78.670437,92.213682 c 0.452947,1.674527 -1.624393,3.410983 -1.939934,4.00544 2.360158,1.603572 0.206029,4.816498 -2.210717,4.672068 -1.964337,0.29295 -3.963131,0.0993 -5.920052,-0.16123 -0.124973,-4.236869 -0.338726,-8.470223 -0.611849,-12.700002 2.972786,-0.379066 6.300386,-0.742356 9.006168,0.816488 1.140341,0.715397 1.708659,2.052924 1.676384,3.367236 z m -3.36517,1.554427 c -0.107821,-1.553552 -2.350019,-1.659957 -1.794364,0.06547 -0.686038,1.873917 1.772811,1.309848 1.794364,-0.06547 z m -0.272851,3.927409 c -0.570393,-1.747228 -2.222984,-0.880868 -1.700458,0.631315 -0.336945,1.096498 2.061249,0.167569 1.700458,-0.631315 z m 9.938411,-9.66556 c -0.202383,4.232338 -0.418849,8.464193 -0.537435,12.700002 -1.546159,0 -3.092318,0 -4.638476,0 -0.187414,-4.233336 -0.374827,-8.466669 -0.56224,-12.700002 1.912717,0 3.825434,0 5.738151,0 z m 10.790038,12.700002 c -1.507574,0 -3.015147,0 -4.522721,0 0.02716,-2.151317 -1.811026,0.17827 -2.443128,0.0207 -0.380916,-0.761104 -0.852613,-2.300803 -1.034262,-0.68342 0.03682,1.04271 -1.085685,0.5572 -1.759801,0.66276 -1.868442,0.159 0.406631,-2.917202 0.177746,-4.062577 0.710185,-2.852879 1.301351,-5.734767 1.76869,-8.637425 1.656402,0 3.312804,0 4.969205,0 0.817859,4.261548 1.820241,8.484137 2.844271,12.700002 z m -5.217252,-2.711981 c -0.425738,-1.019361 -1.152754,-4.347755 -1.64667,-1.619281 -0.768409,1.40803 -0.757653,2.500812 1.04929,1.77431 l 0.293006,-0.0708 z m 15.684827,-9.988021 c -0.28464,4.283282 -0.45109,8.573489 -0.52917,12.865362 -1.99931,-1.588598 -4.05426,-3.102954 -6.159826,-4.547524 -0.02756,1.460721 -0.05512,2.921441 -0.08268,4.382164 -0.887457,0 -1.774913,0 -2.66237,0 -0.191676,-4.235894 -0.38554,-8.473047 -0.727604,-12.700002 1.38355,0 2.767101,0 4.150652,0 1.02526,0.970139 2.05052,1.940278 3.07578,2.910417 0.17099,-1.283657 -0.83292,-3.474035 1.19986,-2.910417 0.57846,0 1.15691,0 1.73536,0 z m 9.99629,5.200716 c -1.75957,-0.578777 -4.19439,0.348574 -4.23527,2.439515 -0.36256,1.90903 1.67979,3.473706 3.46219,2.858353 1.30915,-1.069324 0.48691,2.268238 -0.2434,2.356958 -3.20415,0.89177 -6.95853,-0.84127 -7.99008,-4.085406 -1.09134,-3.064803 0.0173,-7.092004 3.24137,-8.344257 1.60785,-0.538788 4.40294,-1.139151 5.51912,-0.0465 0.082,1.607112 0.16405,3.214224 0.24607,4.821336 z m 10.82311,7.499286 c -1.50757,0 -3.01514,0 -4.52272,0 0.0272,-2.151317 -1.81102,0.17827 -2.44313,0.0207 -0.38091,-0.761104 -0.85261,-2.300803 -1.03426,-0.68342 0.0368,1.04271 -1.08568,0.5572 -1.7598,0.66276 -1.86844,0.159 0.40663,-2.917202 0.17775,-4.062577 0.71018,-2.852879 1.30135,-5.734767 1.76869,-8.637425 1.6564,0 3.3128,0 4.9692,0 0.81786,4.261548 1.82024,8.484137 2.84427,12.700002 z m -5.21725,-2.711981 c -0.42574,-1.019361 -1.15275,-4.347755 -1.64667,-1.619281 -0.76841,1.40803 -0.75765,2.500812 1.04929,1.77431 l 0.29301,-0.0708 z"
       id="text3709"
       inkscape:connector-curvature="0" />
  </g>
</svg>
