<?xml version="1.0" encoding="UTF-8" standalone="no"?>
<!-- Created with Inkscape (http://www.inkscape.org/) -->

<svg
   xmlns:dc="http://purl.org/dc/elements/1.1/"
   xmlns:cc="http://creativecommons.org/ns#"
   xmlns:rdf="http://www.w3.org/1999/02/22-rdf-syntax-ns#"
   xmlns:svg="http://www.w3.org/2000/svg"
   xmlns="http://www.w3.org/2000/svg"
   xmlns:sodipodi="http://sodipodi.sourceforge.net/DTD/sodipodi-0.dtd"
   xmlns:inkscape="http://www.inkscape.org/namespaces/inkscape"
   width="49.766468mm"
   height="13.311849mm"
   viewBox="0 0 49.766468 13.311849"
   version="1.1"
   id="svg3727"
   inkscape:version="0.92.1 r15371"
   sodipodi:docname="nomGabin.svg">
  <defs
     id="defs3721" />
  <sodipodi:namedview
     id="base"
     pagecolor="#ffffff"
     bordercolor="#666666"
     borderopacity="1.0"
     inkscape:pageopacity="0.0"
     inkscape:pageshadow="2"
     inkscape:zoom="0.35"
     inkscape:cx="-355.95311"
     inkscape:cy="-177.7009"
     inkscape:document-units="mm"
     inkscape:current-layer="layer1"
     showgrid="false"
     inkscape:window-width="1366"
     inkscape:window-height="705"
     inkscape:window-x="-8"
     inkscape:window-y="-8"
     inkscape:window-maximized="1" />
  <metadata
     id="metadata3724">
    <rdf:RDF>
      <cc:Work
         rdf:about="">
        <dc:format>image/svg+xml</dc:format>
        <dc:type
           rdf:resource="http://purl.org/dc/dcmitype/StillImage" />
        <dc:title />
      </cc:Work>
    </rdf:RDF>
  </metadata>
  <g
     inkscape:label="Calque 1"
     inkscape:groupmode="layer"
     id="layer1"
     transform="translate(-71.878667,-88.504788)">
    <path
       style="font-style:normal;font-variant:normal;font-weight:normal;font-stretch:normal;font-size:16.93333244px;line-height:1.25;font-family:'Showcard Gothic';-inkscape-font-specification:'Showcard Gothic';text-align:start;letter-spacing:0px;word-spacing:0px;text-anchor:start;fill:#000000;fill-opacity:1;stroke:none;stroke-width:0.26458332"
       d="m 82.982898,96.078485 c -0.38556,1.757998 0.013,4.095095 -0.698019,5.491265 -3.201004,0.55045 -7.16434,0.42168 -9.304147,-2.396105 -2.071752,-3.070062 -1.262666,-8.066676 2.257775,-9.727151 1.9325,-0.983437 4.181785,-0.890211 6.272647,-0.619245 0.151584,1.739084 0.303168,3.478168 0.454752,5.217252 -2.042642,-0.749066 -5.018889,0.380239 -5.027083,2.827734 -0.340238,1.463662 2.137513,3.185235 2.869353,2.246761 -0.07195,-1.017434 -0.16442,-2.033483 -0.331007,-3.040511 1.168577,0 2.337153,0 3.505729,0 z m 10.533723,5.432225 c -1.507573,0 -3.015147,0 -4.522721,0 0.0061,-1.861752 -1.52981,-0.4742 -2.339908,0.23978 -0.328315,-0.42484 -0.811092,-2.465522 -1.01524,-1.33944 -0.159678,0.60817 -0.188594,1.3887 -1.028902,1.09966 -0.538989,-0.16296 -2.061671,0.438 -1.535226,-0.55203 1.003725,-4.020215 1.993487,-8.049652 2.628521,-12.147968 1.656402,0 3.312804,0 4.969206,0 0.818929,4.26131 1.820759,8.484015 2.84427,12.699998 z m -5.217252,-2.711977 c -0.462533,-1.385655 -1.226395,-4.197149 -1.744596,-1.35599 -0.316404,0.90416 -0.966293,2.210772 0.595312,1.612305 0.389115,-0.05497 0.772391,-0.145991 1.149284,-0.256315 z M 104.5051,92.994436 c 0.45294,1.674527 -1.6244,3.410983 -1.93994,4.00544 2.02017,1.276391 0.74418,4.278314 -1.39423,4.491194 -2.202613,0.56419 -4.511506,0.29707 -6.736536,0.0196 -0.12493,-4.236875 -0.341026,-8.470096 -0.611849,-12.699998 2.825846,-0.389421 5.892863,-0.651271 8.560875,0.553423 1.38198,0.650106 2.18033,2.124518 2.12168,3.630301 z m -3.36517,1.554427 c 0.009,-1.380824 -2.292588,-1.786189 -1.784472,-0.13309 -0.266492,1.068982 0.04584,1.93676 1.321452,1.083936 0.32156,-0.198337 0.47361,-0.584859 0.46302,-0.950846 z m -0.27285,3.927409 c -0.0439,-1.240038 -2.219631,-1.345261 -1.687143,0.08743 -0.565573,1.646113 1.689783,1.112575 1.687143,-0.08743 z m 9.93841,-9.66556 c -0.20305,4.232309 -0.41766,8.464244 -0.53744,12.699998 -1.54616,0 -3.09231,0 -4.63847,0 -0.18742,-4.233331 -0.37483,-8.466665 -0.56224,-12.699998 1.91271,0 3.82543,0 5.73815,0 z m 10.83965,0 c -0.28445,4.283304 -0.44964,8.573539 -0.52917,12.865368 -1.99909,-1.5889 -4.05561,-3.101122 -6.15983,-4.54753 -0.0276,1.460721 -0.0551,2.92144 -0.0827,4.38216 -0.88746,0 -1.77492,0 -2.66237,0 -0.19187,-4.235895 -0.38536,-8.473026 -0.72761,-12.699998 1.38355,0 2.7671,0 4.15065,0 1.02526,0.970139 2.05052,1.940278 3.07578,2.910417 0.31257,-1.013412 -0.91839,-3.310552 0.795,-2.910417 0.71341,0 1.42682,0 2.14023,0 z"
       id="text3705"
       inkscape:connector-curvature="0" />
  </g>
</svg>
