<?xml version="1.0" encoding="UTF-8" standalone="no"?>
<!-- Created with Inkscape (http://www.inkscape.org/) -->

<svg
   xmlns:dc="http://purl.org/dc/elements/1.1/"
   xmlns:cc="http://creativecommons.org/ns#"
   xmlns:rdf="http://www.w3.org/1999/02/22-rdf-syntax-ns#"
   xmlns:svg="http://www.w3.org/2000/svg"
   xmlns="http://www.w3.org/2000/svg"
   xmlns:sodipodi="http://sodipodi.sourceforge.net/DTD/sodipodi-0.dtd"
   xmlns:inkscape="http://www.inkscape.org/namespaces/inkscape"
   width="27.969868mm"
   height="34.395832mm"
   viewBox="0 0 27.969868 34.395832"
   version="1.1"
   id="svg4530"
   inkscape:version="0.92.1 r15371"
   sodipodi:docname="nuage.svg">
  <defs
     id="defs4524" />
  <sodipodi:namedview
     id="base"
     pagecolor="#ffffff"
     bordercolor="#666666"
     borderopacity="1.0"
     inkscape:pageopacity="0.0"
     inkscape:pageshadow="2"
     inkscape:zoom="0.7"
     inkscape:cx="-89.286553"
     inkscape:cy="-41.427892"
     inkscape:document-units="mm"
     inkscape:current-layer="svg4530"
     showgrid="false"
     inkscape:pagecheckerboard="true"
     inkscape:window-width="1366"
     inkscape:window-height="705"
     inkscape:window-x="-8"
     inkscape:window-y="-8"
     inkscape:window-maximized="1" />
  <metadata
     id="metadata4527">
    <rdf:RDF>
      <cc:Work
         rdf:about="">
        <dc:format>image/svg+xml</dc:format>
        <dc:type
           rdf:resource="http://purl.org/dc/dcmitype/StillImage" />
        <dc:title></dc:title>
      </cc:Work>
    </rdf:RDF>
  </metadata>
  <g
     inkscape:label="Calque 1"
     inkscape:groupmode="layer"
     id="layer1"
     transform="translate(-60.476412,-103.47637)" />
  <path
     style="fill:#f2f2f2;fill-opacity:1;stroke-width:0.26458332"
     d="M 15.685862,0 A 5.8586306,10.394345 0 0 0 10.270172,6.4409504 6.4255951,9.0714281 0 0 0 4.2162782,14.34021 7.181547,8.1264875 0 0 0 0,21.733557 a 7.181547,8.1264875 0 0 0 7.1814716,8.126635 7.181547,8.1264875 0 0 0 0.7074508,-0.04031 5.1026787,9.2604168 0 0 0 4.3950806,4.575948 5.1026787,9.2604168 0 0 0 4.610055,-5.31337 6.4255951,7.3705357 0 0 0 4.650362,2.289264 6.4255951,7.3705357 0 0 0 6.425448,-7.370608 6.4255951,7.3705357 0 0 0 -2.00143,-5.333008 6.0476193,6.614583 0 0 0 0.489895,-2.604492 A 6.0476193,6.614583 0 0 0 21.523751,9.566857 5.8586306,10.394345 0 0 0 15.685862,0 Z"
     id="path4537"
     inkscape:connector-curvature="0" />
</svg>
