<?xml version="1.0" encoding="UTF-8" standalone="no"?>
<!-- Created with Inkscape (http://www.inkscape.org/) -->

<svg
   xmlns:dc="http://purl.org/dc/elements/1.1/"
   xmlns:cc="http://creativecommons.org/ns#"
   xmlns:rdf="http://www.w3.org/1999/02/22-rdf-syntax-ns#"
   xmlns:svg="http://www.w3.org/2000/svg"
   xmlns="http://www.w3.org/2000/svg"
   xmlns:sodipodi="http://sodipodi.sourceforge.net/DTD/sodipodi-0.dtd"
   xmlns:inkscape="http://www.inkscape.org/namespaces/inkscape"
   width="30.994047mm"
   height="23.021702mm"
   viewBox="0 0 30.994047 23.021702"
   version="1.1"
   id="svg116"
   inkscape:version="0.92.1 r15371"
   sodipodi:docname="pasmoi.svg">
  <defs
     id="defs110" />
  <sodipodi:namedview
     id="base"
     pagecolor="#ffffff"
     bordercolor="#666666"
     borderopacity="1.0"
     inkscape:pageopacity="0.0"
     inkscape:pageshadow="2"
     inkscape:zoom="2.8"
     inkscape:cx="69.508937"
     inkscape:cy="24.154009"
     inkscape:document-units="mm"
     inkscape:current-layer="g46"
     showgrid="false"
     inkscape:window-width="1366"
     inkscape:window-height="705"
     inkscape:window-x="-8"
     inkscape:window-y="-8"
     inkscape:window-maximized="1" />
  <metadata
     id="metadata113">
    <rdf:RDF>
      <cc:Work
         rdf:about="">
        <dc:format>image/svg+xml</dc:format>
        <dc:type
           rdf:resource="http://purl.org/dc/dcmitype/StillImage" />
        <dc:title></dc:title>
      </cc:Work>
    </rdf:RDF>
  </metadata>
  <g
     inkscape:label="Calque 1"
     inkscape:groupmode="layer"
     id="layer1"
     transform="translate(-72.949403,-132.20238)">
    <g
       id="g134">
      <g
         id="g46">
        <ellipse
           style="fill:#ffaaaa;fill-opacity:1;stroke:none;stroke-width:0.06699999;stroke-miterlimit:4;stroke-dasharray:none;stroke-opacity:1"
           id="path118"
           cx="88.446426"
           cy="142.59673"
           rx="15.497024"
           ry="10.394345" />
        <path
           style="fill:#ffaaaa;fill-opacity:1;stroke:none;stroke-width:0.09571429;stroke-miterlimit:4;stroke-dasharray:none;stroke-opacity:1"
           d="m 76.434212,155.0377 c 0,-0.10089 0.722198,-1.63964 1.604888,-3.41943 1.475311,-2.97473 1.679612,-3.21724 2.530414,-3.0037 l 0.925529,0.23229 -0.892554,-0.72274 c -0.58288,-0.47199 -0.807955,-0.94321 -0.648724,-1.35816 0.216972,-0.56541 0.497798,-0.50721 2.549311,0.52839 1.830139,0.92385 2.218616,1.26847 1.884172,1.67145 -0.235598,0.28388 -0.774449,0.4153 -1.222468,0.29814 -0.513582,-0.13431 -0.711464,-0.0644 -0.55128,0.1948 0.137435,0.22237 -1.058474,1.60988 -2.65757,3.08335 -2.611041,2.40591 -3.521718,3.05125 -3.521718,2.49561 z"
           id="path124"
           inkscape:connector-curvature="0" />
        <path
           transform="matrix(0.26458333,0,0,0.26458333,72.949403,132.20238)"
           inkscape:connector-curvature="0"
           id="path26"
           d="m 13.437745,86.647808 c -0.224926,-0.363936 1.490777,-4.247607 4.900906,-11.0937 1.501754,-3.014886 2.728147,-5.666671 2.725317,-5.892857 -0.0028,-0.226186 -0.767979,-0.831711 -1.700332,-1.345614 C 16.380614,66.671426 11.915054,63.072001 9.0402859,59.994583 -5.4608295,44.471265 -1.8448829,24.081535 17.663121,11.37183 33.239062,1.2239124 55.215724,-2.321074 76.129282,1.9408375 93.462217,5.4730653 108.2253,15.217828 114.01649,26.949298 c 2.90891,5.892726 3.69565,13.044142 2.09494,19.042907 -4.18456,15.681842 -21.388838,27.779092 -44.863745,31.546096 -5.562914,0.892675 -19.797714,0.888618 -25.415225,-0.0072 -4.557811,-0.726868 -11.195523,-2.342504 -13.996432,-3.406764 l -1.906974,-0.724593 -3.591252,3.399278 c -5.601394,5.301965 -11.530285,10.129604 -12.440306,10.129604 -0.157425,0 -0.364313,-0.126346 -0.459751,-0.280768 z"
           style="fill:#ffffff;fill-opacity:1;stroke:none;stroke-width:0.09043869;stroke-miterlimit:4;stroke-dasharray:none;stroke-opacity:1" />
        <text
           xml:space="preserve"
           style="font-style:normal;font-variant:normal;font-weight:normal;font-stretch:normal;font-size:5.86752939px;line-height:1.25;font-family:'Snap ITC';-inkscape-font-specification:'Snap ITC';text-align:center;letter-spacing:0px;word-spacing:0px;text-anchor:middle;fill:#ff0000;fill-opacity:1;stroke:none;stroke-width:0.4400647;"
           x="110.65458"
           y="112.17791"
           id="text90"
           transform="scale(0.79709342,1.2545581)"><tspan
             sodipodi:role="line"
             id="tspan88"
             x="110.65458"
             y="117.3693"
             style="text-align:center;text-anchor:middle;stroke-width:0.4400647;fill:#ff0000;" /></text>
        <text
           xml:space="preserve"
           style="font-style:normal;font-variant:normal;font-weight:normal;font-stretch:normal;font-size:5.99831772px;line-height:1.25;font-family:'Snap ITC';-inkscape-font-specification:'Snap ITC';text-align:start;letter-spacing:0px;word-spacing:0px;text-anchor:start;fill:#000000;fill-opacity:1;stroke:none;stroke-width:0.44987381"
           x="111.52533"
           y="101.9067"
           id="text94"
           transform="scale(0.68739017,1.4547779)"><tspan
             sodipodi:role="line"
             id="tspan92"
             x="111.52533"
             y="107.21381"
             style="stroke-width:0.44987381" /></text>
        <path
           style="fill:#ff0000;fill-opacity:1;stroke:none;stroke-width:0.09043869;stroke-miterlimit:4;stroke-dasharray:none;stroke-opacity:1"
           d="m 13.612384,86.227044 c 0.0029,-0.301657 1.547592,-3.762754 3.432684,-7.691325 1.885091,-3.928572 3.455757,-7.673061 3.490369,-8.321086 0.05864,-1.097946 -0.132665,-1.309118 -2.807684,-3.099203 C 6.5005041,59.602305 0.38680775,49.73354 0.39535585,39.137369 0.40184889,31.088685 3.8521791,23.804 10.864405,17.034056 22.856434,5.4563685 43.498968,-0.94239686 63.964282,0.57417531 c 3.241072,0.240178 6.560547,0.44227999 7.376611,0.44911539 0.816064,0.00684 1.396807,0.1531077 1.290543,0.3250494 -0.106268,0.1719417 0.37995,0.2457079 1.080478,0.163925 0.726722,-0.08484 1.185979,-0.00677 1.069443,0.1817886 -0.115743,0.1872714 0.273854,0.2603137 0.899047,0.1685551 0.655121,-0.096152 1.01686,-0.022069 0.890507,0.1823718 -0.125286,0.2027174 0.171757,0.2707911 0.722339,0.1655403 0.572214,-0.1093857 0.849422,-0.040084 0.714286,0.1785714 -0.135136,0.2186551 0.142071,0.2879571 0.714286,0.1785714 0.572214,-0.1093857 0.849421,-0.040084 0.714285,0.1785714 -0.135135,0.2186552 0.142072,0.287957 0.714286,0.1785715 0.514321,-0.098319 0.862246,-0.060831 0.773164,0.083306 -0.215339,0.3484243 1.938007,0.7676704 2.4183,0.4708322 0.235743,-0.1456972 0.26779,-0.057646 0.08605,0.2364221 -0.21575,0.3490896 -0.09309,0.4171925 0.481025,0.2670596 0.423843,-0.1108375 0.691157,-0.072941 0.594028,0.084215 -0.234393,0.3792543 1.526668,0.8091389 2.032932,0.4962504 0.230029,-0.1421661 0.29579,-0.082701 0.156961,0.1419317 -0.293136,0.4743018 1.021654,0.9402947 1.643236,0.5824025 0.247293,-0.1423857 0.336764,-0.1336496 0.198825,0.019414 -0.270918,0.3006222 8.896761,5.0346559 9.611793,4.9633679 0.237835,-0.02371 0.39855,0.138872 0.357143,0.361299 -0.0414,0.222426 0.204242,0.382378 0.545878,0.355449 0.341636,-0.02693 0.543907,0.07603 0.449493,0.228792 -0.255761,0.41383 1.563759,1.496763 2.030329,1.208403 0.22682,-0.140183 0.30397,-0.0896 0.17691,0.115998 -0.31603,0.511339 1.04426,1.661484 1.57622,1.332717 0.25712,-0.158911 0.34273,-0.119737 0.20949,0.09585 -0.25177,0.407378 0.92118,1.619891 1.40956,1.457099 0.1719,-0.0573 0.33568,0.03308 0.36396,0.200845 0.0965,0.572517 3.1017,3.414574 3.40946,3.224365 0.16876,-0.104298 0.26267,0.02321 0.2087,0.283343 -0.054,0.260137 0.1147,0.428815 0.37484,0.374841 0.26279,-0.05453 0.36627,0.0745 0.23287,0.290362 -0.27102,0.438518 0.85015,1.845824 1.26584,1.588908 0.148,-0.09147 0.24706,0.113215 0.22013,0.454851 -0.03,0.380879 0.15826,0.575106 0.48675,0.502109 0.29465,-0.06548 0.42083,-0.0042 0.28042,0.136243 -0.35484,0.354843 0.39259,1.657613 0.80484,1.402829 0.1893,-0.116996 0.2328,0.05955 0.1,0.405728 -0.15849,0.413006 -0.10026,0.529467 0.17857,0.357142 0.27883,-0.172324 0.33706,-0.05586 0.17857,0.357143 -0.17218,0.448708 -0.10848,0.534552 0.23785,0.320511 0.30461,-0.188264 0.38742,-0.153843 0.23258,0.09669 -0.32248,0.521779 1.23205,3.673184 1.67643,3.39854 0.19234,-0.118876 0.2412,-0.04056 0.10858,0.17404 -0.13263,0.214598 0.10582,1.565323 0.52988,3.001611 0.61617,2.086911 0.78453,3.668999 0.83819,7.876756 0.0369,2.895929 -0.008,5.190654 -0.0988,5.099393 -0.21208,-0.212085 -2.24953,5.453786 -2.32884,6.476179 -0.0328,0.423207 -0.16607,0.703718 -0.29609,0.623361 -0.33959,-0.209879 -2.11845,3.085575 -1.87671,3.476717 0.11105,0.179697 -0.0109,0.282561 -0.27105,0.22859 -0.26159,-0.05428 -0.4511,0.179475 -0.42401,0.523021 0.0269,0.341636 -0.0754,0.544297 -0.2274,0.450361 -0.38707,-0.239225 -1.11782,0.716868 -0.99482,1.301603 0.056,0.266211 -0.0721,0.452829 -0.28471,0.4147 -0.40009,-0.07175 -5.12453,4.5054 -5.14029,4.980036 -0.005,0.147322 -0.0491,0.2407 -0.0982,0.207507 -0.28836,-0.19491 -1.67475,0.869986 -1.60359,1.231729 0.0472,0.239671 -0.13208,0.389946 -0.39829,0.333946 -0.58473,-0.123 -1.54082,0.607743 -1.3016,0.994818 0.0939,0.151997 -0.10872,0.254322 -0.45036,0.227393 -0.34355,-0.02707 -0.5773,0.162421 -0.52302,0.424011 0.054,0.260135 -0.062,0.373993 -0.25777,0.253014 -0.458354,-0.283279 -2.217786,0.858761 -1.961608,1.273271 0.106733,0.172693 -0.08173,0.208158 -0.418796,0.07882 -0.448707,-0.172186 -0.53455,-0.108482 -0.320511,0.237843 0.19179,0.310321 0.154129,0.387596 -0.109493,0.224667 -0.51846,-0.320425 -2.655371,0.775343 -2.380228,1.220533 0.118903,0.192389 -0.05506,0.236592 -0.404054,0.102671 -0.413003,-0.158486 -0.529464,-0.100257 -0.357143,0.178571 0.172325,0.278825 0.05587,0.337058 -0.357142,0.178572 -0.413004,-0.158486 -0.529465,-0.100257 -0.357143,0.178571 0.172325,0.278825 0.05586,0.337057 -0.357143,0.178572 -0.448707,-0.172186 -0.53455,-0.108482 -0.320511,0.237843 0.199697,0.323114 0.154843,0.388035 -0.141539,0.204864 -0.532829,-0.329307 -2.599443,0.476643 -2.331964,0.909432 0.105917,0.171382 -0.0832,0.205775 -0.420272,0.07643 -0.448707,-0.172186 -0.53455,-0.108482 -0.320511,0.237843 0.19504,0.315575 0.154408,0.387768 -0.122064,0.2169 -0.551978,-0.341143 -2.931636,0.536489 -2.657475,0.980089 0.118172,0.191204 0.03068,0.2337 -0.194557,0.0945 -0.559814,-0.345982 -4.365732,0.889803 -4.094075,1.329353 0.123193,0.199336 0.03493,0.239247 -0.203382,0.09196 -0.521261,-0.322157 -2.6169,0.1041 -2.381822,0.484468 0.09399,0.152068 -0.249928,0.196046 -0.76425,0.09772 -0.703692,-0.134518 -0.864139,-0.0639 -0.648296,0.285346 0.191146,0.309282 0.146525,0.37739 -0.133757,0.204168 -0.467286,-0.2888 -5.431679,0.530236 -5.226468,0.862272 0.0712,0.1152 -0.443711,0.142539 -1.144243,0.06076 -0.771414,-0.09006 -1.1888,-0.01136 -1.058425,0.19961 0.138307,0.223786 -4.309628,0.349675 -12.441568,0.352129 -6.961257,0.0021 -12.582478,-0.116493 -12.491596,-0.263539 0.09088,-0.147047 -0.596518,-0.3783 -1.527547,-0.513893 C 41.702382,76.72529 35.600632,75.23028 32.636405,74.235219 l -2.729253,-0.916179 -1.275007,1.351486 -1.275006,1.351489 1.428572,-1.24315 1.428571,-1.243146 -1.203862,1.311518 c -0.662123,0.721335 -1.391486,1.239521 -1.620805,1.151525 -0.229318,-0.088 -0.882827,0.326282 -1.452242,0.920625 -0.569414,0.594339 -0.893346,1.080618 -0.719849,1.080618 0.173496,0 -0.217637,0.550003 -0.869187,1.222232 -0.651549,0.672228 -1.37226,1.150235 -1.601579,1.062239 -0.229318,-0.088 -0.892938,0.36395 -1.474709,1.004325 -0.871333,0.959107 -0.900399,1.039411 -0.16491,0.455621 l 0.892858,-0.708703 -0.658556,0.779486 c -0.362206,0.428717 -0.858779,0.702653 -1.103495,0.608746 -0.244717,-0.09391 -0.651081,0.07765 -0.903032,0.381229 -0.251951,0.303582 -0.338378,0.551967 -0.19206,0.551967 0.146317,0 0.07389,0.231518 -0.160953,0.514486 -0.234842,0.282968 -0.630558,0.436368 -0.879368,0.340889 -0.441675,-0.169485 -1.544703,0.833861 -1.373444,1.249322 0.04743,0.115061 -0.193642,0.210896 -0.535714,0.212968 -0.342073,0.0021 -0.583699,0.198875 -0.536948,0.437339 0.05241,0.267329 -0.141231,0.346764 -0.505017,0.207164 -0.334959,-0.128535 -0.498831,-0.07887 -0.379079,0.114897 0.116016,0.187714 -0.09869,0.341303 -0.477127,0.341303 -0.382906,0 -0.685739,-0.243246 -0.68282,-0.548471 z m 10.552937,-7.244897 1.048961,-1.160714 -1.160714,1.048961 c -1.081948,0.977778 -1.324876,1.272468 -1.048961,1.272468 0.06146,0 0.583786,-0.522322 1.160714,-1.160715 z"
           id="path1401"
           inkscape:connector-curvature="0"
           transform="matrix(0.26458333,0,0,0.26458333,72.949403,132.20238)" />
        <text
           xml:space="preserve"
           style="font-style:normal;font-variant:normal;font-weight:normal;font-stretch:normal;font-size:4.23333333px;line-height:1.25;font-family:'Showcard Gothic';-inkscape-font-specification:'Showcard Gothic';text-align:start;letter-spacing:0px;word-spacing:0px;text-anchor:start;fill:#000000;fill-opacity:1;stroke:none;stroke-width:0.26458332;"
           x="79.563988"
           y="140.29402"
           id="text1405"><tspan
             sodipodi:role="line"
             id="tspan1403"
             x="79.563988"
             y="153.30959"
             style="stroke-width:0.26458332;font-size:4.23333333px;" /></text>
        <text
           xml:space="preserve"
           style="font-style:normal;font-variant:normal;font-weight:normal;font-stretch:normal;font-size:5.74332571px;line-height:1.25;font-family:'Showcard Gothic';-inkscape-font-specification:'Showcard Gothic';text-align:start;letter-spacing:0px;word-spacing:0px;text-anchor:start;fill:#000000;fill-opacity:1;stroke:none;stroke-width:0.10768735"
           x="89.448204"
           y="123.74696"
           id="text1409"
           transform="scale(0.85669322,1.167279)"><tspan
             sodipodi:role="line"
             id="tspan1407"
             x="89.448204"
             y="123.74696"
             style="stroke-width:0.10768735">PAS MOI!!</tspan></text>
      </g>
    </g>
  </g>
</svg>
