<?xml version="1.0" encoding="UTF-8" standalone="no"?>
<!-- Created with Inkscape (http://www.inkscape.org/) -->

<svg
   xmlns:dc="http://purl.org/dc/elements/1.1/"
   xmlns:cc="http://creativecommons.org/ns#"
   xmlns:rdf="http://www.w3.org/1999/02/22-rdf-syntax-ns#"
   xmlns:svg="http://www.w3.org/2000/svg"
   xmlns="http://www.w3.org/2000/svg"
   xmlns:sodipodi="http://sodipodi.sourceforge.net/DTD/sodipodi-0.dtd"
   xmlns:inkscape="http://www.inkscape.org/namespaces/inkscape"
   width="116.60786mm"
   height="8.7178135mm"
   viewBox="0 0 116.60787 8.7178137"
   version="1.1"
   id="svg8"
   inkscape:version="0.92.1 r15371"
   sodipodi:docname="select.svg"
   inkscape:export-filename="C:\Users\Alexandre\Documents\QT\GameBiancaGabin\ressources\select.png"
   inkscape:export-xdpi="96"
   inkscape:export-ydpi="96">
  <defs
     id="defs2" />
  <sodipodi:namedview
     id="base"
     pagecolor="#ffffff"
     bordercolor="#666666"
     borderopacity="1.0"
     inkscape:pageopacity="0.0"
     inkscape:pageshadow="2"
     inkscape:zoom="0.7"
     inkscape:cx="-202.11218"
     inkscape:cy="81.146213"
     inkscape:document-units="mm"
     inkscape:current-layer="layer1"
     showgrid="false"
     inkscape:window-width="1366"
     inkscape:window-height="705"
     inkscape:window-x="-8"
     inkscape:window-y="-8"
     inkscape:window-maximized="1" />
  <metadata
     id="metadata5">
    <rdf:RDF>
      <cc:Work
         rdf:about="">
        <dc:format>image/svg+xml</dc:format>
        <dc:type
           rdf:resource="http://purl.org/dc/dcmitype/StillImage" />
        <dc:title />
      </cc:Work>
    </rdf:RDF>
  </metadata>
  <g
     inkscape:label="Calque 1"
     inkscape:groupmode="layer"
     id="layer1"
     transform="translate(-26.261224,-61.593921)">
    <text
       xml:space="preserve"
       style="font-style:normal;font-variant:normal;font-weight:normal;font-stretch:normal;font-size:10.58333302px;line-height:1.25;font-family:'Showcard Gothic';-inkscape-font-specification:'Showcard Gothic';letter-spacing:0px;word-spacing:0px;fill:#000000;fill-opacity:1;stroke:none;stroke-width:0.26458332"
       x="22.678572"
       y="72.860123"
       id="text3682"><tspan
         sodipodi:role="line"
         id="tspan3680"
         x="22.678572"
         y="82.621803"
         style="font-style:normal;font-variant:normal;font-weight:normal;font-stretch:normal;font-family:'Showcard Gothic';-inkscape-font-specification:'Showcard Gothic';stroke-width:0.26458332" /></text>
    <path
       style="font-style:normal;font-weight:normal;font-size:10.58333302px;line-height:1.25;font-family:sans-serif;letter-spacing:0px;word-spacing:0px;fill:#000000;fill-opacity:1;stroke:none;stroke-width:0.26458332"
       d="m 32.131667,65.149259 c -3.408887,-1.297987 -3.274117,4.821895 -0.01034,3.121256 -1.838002,5.638582 -9.477987,-3.164063 -4.140897,-5.81812 2.6268,-1.690036 4.806639,-0.446558 4.140831,2.493066 z m 8.252726,-3.250447 c -0.953935,2.34148 1.343452,7.93695 -1.780438,7.937499 -2.135952,0.638008 -0.569252,-2.432542 -2.323937,-1.784737 -1.072865,-2.04693 0.668515,3.00004 -1.581478,1.784737 -2.066155,0.65392 -1.864604,-1.051106 -1.841473,-2.570532 0.443083,-1.777573 -1.618339,-5.824365 1.122216,-5.366967 1.841023,-0.378648 2.676173,0.199842 2.120043,2.102206 -0.888828,1.750097 1.05382,4.377834 1.121266,1.59809 0.28412,-1.122565 -0.964292,-3.696935 0.501265,-3.700296 0.887512,0 1.775024,0 2.662536,0 z m 7.348389,3.798217 c 0.781626,5.560212 -7.748725,5.557679 -6.960816,0 -0.453147,-5.38295 7.380073,-5.42543 6.960816,0 z m -2.485637,0.909505 c -2.4969,-5.712243 -2.262319,5.897992 0,0 z m 6.480224,-4.707722 c -0.127163,2.645181 -0.26104,5.290152 -0.335897,7.937499 -1.282363,-0.158584 -3.539042,0.701236 -2.961107,-1.401826 -0.09645,-2.178558 -0.192894,-4.357116 -0.28934,-6.535673 1.195448,0 2.390896,0 3.586344,0 z m 5.343344,3.250447 c -3.092916,-0.231435 1.971542,5.155003 -2.578654,4.805908 -1.963617,0.300637 -2.002392,-2.186554 -0.125638,-1.852923 -1.809741,-1.801095 -3.833478,-6.534382 0.833605,-6.415306 2.717408,-0.518077 1.473754,1.878646 1.870687,3.462321 z m 3.979084,-3.250447 c -0.127163,2.645181 -0.26104,5.290152 -0.335897,7.937499 -1.282363,-0.158584 -3.539043,0.701236 -2.961108,-1.401826 -0.09645,-2.178558 -0.192893,-4.357116 -0.289339,-6.535673 1.195448,0 2.390896,0 3.586344,0 z m 5.343342,3.250447 c -3.092916,-0.231435 1.971542,5.155003 -2.578654,4.805908 -1.963617,0.300637 -2.002392,-2.186554 -0.125638,-1.852923 -1.809741,-1.801095 -3.833478,-6.534382 0.833605,-6.415306 2.717408,-0.518077 1.473754,1.878646 1.870687,3.462321 z m 5.31234,0 c -3.092917,-0.231435 1.971542,5.155003 -2.578654,4.805908 -1.963617,0.300637 -2.002392,-2.186554 -0.125639,-1.852923 -1.80974,-1.801095 -3.833478,-6.534382 0.833606,-6.415306 2.717408,-0.518077 1.473754,1.878646 1.870687,3.462321 z m 5.823932,-3.250447 c -0.09438,1.816075 0.212306,4.013875 -2.018188,3.344069 -0.540762,1.780487 3.09782,-0.334933 1.485921,2.169806 -2.603191,-0.945807 -1.740312,2.302125 0.444417,0.857828 0.186284,2.587691 -2.742105,1.233531 -4.342634,1.565796 -1.384485,-0.08222 -0.409167,-2.613156 -0.787625,-3.739308 -0.267448,-2.443425 -0.822918,-5.060731 2.359449,-4.198191 0.952887,0 1.905773,0 2.85866,0 z m 6.790282,0 c -0.949124,2.120456 -1.898248,4.240912 -2.847371,6.361368 3.662614,-0.918562 1.420339,2.585426 -0.996402,1.576131 -2.11614,0.481021 -2.276593,-0.510983 -1.44821,-2.247778 0.948983,-2.049674 0.603447,-2.792351 -1.023723,-2.906721 -0.03125,-1.453451 -0.630594,-3.455467 1.539727,-2.783 1.591993,0 3.183986,0 4.775979,0 z m 9.451619,0 c -0.09475,2.557012 -0.193133,5.114548 -0.170532,7.67395 -4.94644,2.495826 -7.675363,-2.662224 -6.842282,-6.947251 0.143529,-1.396429 5.064896,-1.252151 3.245603,1.495387 -0.812761,1.588236 1.062111,6.844116 1.452107,3.014028 0.399482,-2.6609 -1.837012,-6.201505 2.315104,-5.236114 z m 6.774788,0 c -0.43637,2.320317 0.19402,6.703073 -0.713462,7.742098 -1.948612,-1.734425 -4.176096,-3.621235 -3.515696,0.02862 -3.041732,1.314002 -1.324847,-4.133946 -1.988813,-5.964632 -1.250029,-2.240119 2.125073,-2.373913 3.140578,-1.163135 2.02985,2.669285 0.306842,-1.703827 3.031123,-0.642956 z m 6.8988,0 c 0.18664,3.353847 0.0101,10.829448 -4.3925,7.188191 -0.30793,-1.310963 2.45765,0.06869 1.2412,-2.512766 -0.35579,-2.718514 -1.19189,-5.629532 2.39202,-4.675425 0.25309,0 0.50618,0 0.75928,0 z m 7.36389,3.798217 c 0.78162,5.560212 -7.74873,5.557679 -6.96082,0 -0.45315,-5.38295 7.38007,-5.42543 6.96082,0 z m -2.48564,0.909505 c -2.4969,-5.712243 -2.26232,5.897992 0,0 z m 9.89087,-4.707722 c -0.0948,2.557012 -0.19313,5.114548 -0.17053,7.67395 -4.94644,2.495826 -7.67536,-2.662224 -6.84228,-6.947251 0.14353,-1.396429 5.0649,-1.252151 3.2456,1.495387 -0.81276,1.588236 1.06211,6.844116 1.45211,3.014028 0.39948,-2.6609 -1.83701,-6.201505 2.3151,-5.236114 z m 5.85494,0 c -0.0944,1.816075 0.2123,4.013875 -2.01819,3.344069 -0.54076,1.780487 3.09782,-0.334933 1.48592,2.169806 -2.60319,-0.945807 -1.74031,2.302125 0.44442,0.857828 0.18628,2.587691 -2.74211,1.233531 -4.34264,1.565796 -1.38448,-0.08222 -0.40916,-2.613156 -0.78762,-3.739308 -0.26745,-2.443425 -0.82292,-5.060731 2.35945,-4.198191 0.95288,0 1.90577,0 2.85866,0 z m 7.43624,0 c -0.0948,2.557012 -0.19313,5.114548 -0.17053,7.67395 -4.94644,2.495826 -7.67537,-2.662224 -6.84229,-6.947251 0.14353,-1.396429 5.0649,-1.252151 3.24561,1.495387 -0.81276,1.588236 1.06211,6.844116 1.45211,3.014028 0.39948,-2.6609 -1.83702,-6.201505 2.3151,-5.236114 z m 7.36389,2.971394 c -1.19312,2.10074 -1.65459,3.293575 -0.46122,4.635376 -1.64304,1.98746 -2.77716,-0.806731 -3.15248,-1.244175 0.61759,2.138461 -1.44655,1.517484 -2.85139,1.574904 0.30423,-2.824281 -2.48885,-9.404108 2.64537,-8.075169 1.82567,-0.0361 3.98072,0.975544 3.81972,3.109064 z m -2.34611,1.116211 c -1.62228,-3.631577 -1.75137,3.746027 0,0 z"
       id="text3686"
       inkscape:connector-curvature="0" />
    <flowRoot
       xml:space="preserve"
       id="flowRoot3688"
       style="font-style:normal;font-weight:normal;font-size:40px;line-height:1.25;font-family:sans-serif;letter-spacing:0px;word-spacing:0px;fill:#000000;fill-opacity:1;stroke:none"
       transform="scale(0.26458333)"><flowRegion
         id="flowRegion3690"><rect
           id="rect3692"
           width="500"
           height="52.857143"
           x="80"
           y="225.37683" /></flowRegion><flowPara
         id="flowPara3694" /></flowRoot>  </g>
</svg>
