<?xml version="1.0" encoding="UTF-8" standalone="no"?>
<!-- Created with Inkscape (http://www.inkscape.org/) -->

<svg
   xmlns:dc="http://purl.org/dc/elements/1.1/"
   xmlns:cc="http://creativecommons.org/ns#"
   xmlns:rdf="http://www.w3.org/1999/02/22-rdf-syntax-ns#"
   xmlns:svg="http://www.w3.org/2000/svg"
   xmlns="http://www.w3.org/2000/svg"
   xmlns:sodipodi="http://sodipodi.sourceforge.net/DTD/sodipodi-0.dtd"
   xmlns:inkscape="http://www.inkscape.org/namespaces/inkscape"
   width="67.303383mm"
   height="27.252682mm"
   viewBox="0 0 67.303382 27.252683"
   version="1.1"
   id="svg831"
   inkscape:version="0.92.1 r15371"
   sodipodi:docname="souris.svg">
  <defs
     id="defs825" />
  <sodipodi:namedview
     id="base"
     pagecolor="#ffffff"
     bordercolor="#666666"
     borderopacity="1.0"
     inkscape:pageopacity="0.0"
     inkscape:pageshadow="2"
     inkscape:zoom="0.35"
     inkscape:cx="-707.64137"
     inkscape:cy="-109.49406"
     inkscape:document-units="mm"
     inkscape:current-layer="layer1"
     showgrid="false"
     inkscape:window-width="1366"
     inkscape:window-height="705"
     inkscape:window-x="-8"
     inkscape:window-y="-8"
     inkscape:window-maximized="1" />
  <metadata
     id="metadata828">
    <rdf:RDF>
      <cc:Work
         rdf:about="">
        <dc:format>image/svg+xml</dc:format>
        <dc:type
           rdf:resource="http://purl.org/dc/dcmitype/StillImage" />
        <dc:title />
      </cc:Work>
    </rdf:RDF>
  </metadata>
  <g
     inkscape:label="Calque 1"
     inkscape:groupmode="layer"
     id="layer1"
     transform="translate(-36.79559,-92.61035)">
    <path
       style="font-style:normal;font-variant:normal;font-weight:normal;font-stretch:normal;font-size:14.11111069px;line-height:1.25;font-family:'Showcard Gothic';-inkscape-font-specification:'Showcard Gothic';text-align:start;letter-spacing:0px;word-spacing:0px;text-anchor:start;fill:#89a02c;fill-opacity:1;stroke:none;stroke-width:0.26458332"
       d="m 48.16539,92.892848 c -0.12544,3.40939 -0.2596,6.819321 -0.227377,10.231932 -2.377853,0.76446 -5.53544,1.20592 -7.497819,-0.70452 -1.584311,-2.15449 -1.249574,-5.014595 -1.571394,-7.539592 -0.351907,-1.461195 -0.07277,-2.366774 1.510647,-1.98782 0.948558,0 1.897117,0 2.845676,0 0.0041,2.779137 -0.370891,5.63343 0.206706,8.364692 2.269079,2.04198 1.598452,-1.938613 1.604122,-3.31106 0.355618,-1.475023 -0.918358,-4.379178 0.21753,-5.053632 0.970636,0 1.941272,0 2.911909,0 z m 8.977918,0 c -0.0666,1.444643 -0.13321,2.889287 -0.199815,4.33393 -1.651848,-0.560047 -2.483707,0.09163 -2.191081,1.81901 -0.541417,1.241732 0.698187,4.386992 -0.985815,4.430392 -0.865694,0 -1.731389,0 -2.597084,0 -0.09569,-2.13243 -0.176884,-4.266253 -0.3514,-6.394096 -0.647167,-0.08833 -1.635892,0.263418 -2.078831,0.02183 -0.05579,-1.403689 -0.111581,-2.807377 -0.167371,-4.211066 2.857132,0 5.714265,0 8.571397,0 z m 5.188314,0 c -0.169133,3.526926 -0.34807,7.053538 -0.447862,10.583332 -1.288466,0 -2.576931,0 -3.865397,0 -0.156178,-3.527777 -0.312355,-7.055554 -0.468533,-10.583332 1.593931,0 3.187861,0 4.781792,0 z m 7.717014,8.495602 c -0.189868,1.33431 -0.309153,2.51997 -1.895837,2.08773 -1.586695,0 -3.173391,0 -4.760087,0 -0.08066,-3.53124 -0.226548,-7.061091 -0.496094,-10.583332 1.593931,0 3.187862,0 4.781793,0 -0.130914,2.926034 -0.261828,5.852069 -0.392741,8.778102 0.923564,-0.0335 1.858373,-0.081 2.762966,-0.2825 z m 5.098742,-8.495602 c -0.169133,3.526926 -0.34807,7.053538 -0.447862,10.583332 -1.288466,0 -2.576932,0 -3.865397,0 -0.156178,-3.527777 -0.312356,-7.055554 -0.468533,-10.583332 1.593931,0 3.187861,0 4.781792,0 z m 7.124456,4.33393 c -2.692464,-0.630814 -1.13008,2.219542 -0.540019,3.404612 0.395263,1.91662 -1.686382,3.31356 -3.426147,2.99336 -1.422841,0.66105 -2.335086,-3.04662 -0.602031,-2.0227 2.887021,-1.06852 -1.606435,-2.980418 -1.862289,-4.599957 -1.023171,-2.498887 1.520196,-4.731835 3.936237,-4.391743 1.267988,-0.04091 2.747244,0.05835 2.352186,1.647307 0.04735,0.989707 0.09471,1.979414 0.142063,2.969121 z m 7.765247,-4.33393 c -0.09876,1.45383 -0.197519,2.907661 -0.296278,4.361491 -1.26028,-0.821726 -3.463269,0.25432 -2.034759,1.108029 1.774693,-0.329577 2.329795,0.136467 1.621348,1.882312 -1.439043,-0.467493 -2.506746,-0.19869 -2.170411,1.39871 1.358652,0.12434 3.578272,-0.93265 2.401232,1.24712 -0.02928,1.0765 -1.474714,0.3951 -2.21781,0.58567 -1.358793,0 -2.717586,0 -4.076379,0 -0.14042,-3.528469 -0.223478,-7.059862 -0.468533,-10.583332 2.413863,0 4.827727,0 7.24159,0 z m 9.053709,0 c -1.265498,2.827275 -2.530996,5.65455 -3.796495,8.481822 1.229802,0.26435 3.663761,-1.04769 2.392188,1.03698 0.131996,1.5175 -1.301409,0.97434 -2.25806,1.06453 -1.418154,0 -2.836308,0 -4.254462,0 0.620117,-2.15893 1.240235,-4.317852 1.860352,-6.476778 -1.372132,0.142411 -2.816201,0.595713 -2.394242,-1.247258 -0.03334,-0.953098 -0.06667,-1.906197 -0.100007,-2.859296 2.850242,0 5.700484,0 8.550726,0 z"
       id="text1381"
       inkscape:connector-curvature="0" />
    <path
       style="font-style:normal;font-variant:normal;font-weight:normal;font-stretch:normal;font-size:14.11111069px;line-height:1.25;font-family:'Showcard Gothic';-inkscape-font-specification:'Showcard Gothic';text-align:start;letter-spacing:0px;word-spacing:0px;text-anchor:start;fill:#89a02c;fill-opacity:1;stroke:none;stroke-width:0.26458332"
       d="m 43.947608,117.14141 c -0.03676,1.63196 -0.55607,2.46238 -2.196096,2.08772 -1.486609,0 -2.973219,0 -4.459828,0 -0.08105,-3.53122 -0.228044,-7.06102 -0.496094,-10.58333 1.593931,0 3.187861,0 4.781792,0 -0.130913,2.92603 -0.261827,5.85207 -0.392741,8.7781 0.923829,-0.0317 1.858146,-0.0814 2.762967,-0.28249 z m 8.743652,2.08772 c -1.256311,0 -2.512623,0 -3.768934,0 -0.02832,-2.24038 -2.036209,1.32365 -2.299201,-0.54163 -0.717751,-1.98239 -0.181448,1.17372 -1.436151,0.54163 -2.362199,0.59367 -0.487967,-2.10899 -0.480853,-3.38548 0.594377,-2.37679 1.082699,-4.77938 1.473909,-7.19785 1.380335,0 2.76067,0 4.141005,0 0.682153,3.55111 1.516238,7.07031 2.370225,10.58333 z m -4.34771,-2.25998 c -0.379622,-1.08819 -1.027013,-3.57697 -1.45383,-1.12999 -0.921568,1.76715 0.0213,1.51986 1.45383,1.12999 z m 14.000868,-3.98942 c -3.78852,-0.38 0.989292,3.62708 -0.995202,5.30372 -1.333338,2.19093 -5.628995,0.88716 -4.244788,-1.03309 3.216618,0.51075 0.721166,-2.75051 -0.638204,-3.48472 -1.64453,-1.87938 -0.418955,-5.1508 2.135959,-5.29769 1.273464,-0.0402 4.049681,-0.61779 3.594285,1.41962 0.04932,1.03072 0.09863,2.06144 0.14795,3.09216 z m 9.763401,0.73036 c 0.15623,2.85972 -1.930534,6.29422 -5.139544,5.84277 -3.573619,-0.4902 -4.750763,-4.85854 -3.884372,-7.90202 0.638221,-3.40768 5.463085,-4.60975 7.680329,-2.01285 1.004123,1.09575 1.350549,2.62275 1.343587,4.0721 z m -3.314182,1.21267 c 0.485379,-2.74925 -3.473238,-2.12438 -2.53559,0.39318 0.198813,2.72505 2.621087,1.9737 2.53559,-0.39318 z M 81.98146,108.6458 c -0.125637,3.40938 -0.258646,6.81936 -0.227376,10.23193 -2.444327,0.78562 -5.861545,1.26434 -7.701834,-0.96247 -1.45247,-2.48436 -1.095461,-5.53881 -1.421209,-8.30053 -0.545852,-1.58527 1.395154,-0.77248 2.288171,-0.96893 1.00222,0.10137 2.744013,-0.51671 2.084085,1.19545 0.106049,2.45296 -0.484122,5.1146 0.421163,7.42849 2.672851,1.3121 1.040627,-3.24959 1.389127,-4.72398 0.406972,-1.20669 -1.298186,-4.35666 0.856915,-3.89996 0.77032,0 1.540639,0 2.310958,0 z m 9.818522,3.96186 c 0.572811,2.46005 -3.819065,3.22051 -1.073147,5.02037 2.289654,1.13329 -1.255322,1.87099 -2.033898,2.06189 -0.760291,-0.52982 -1.904363,-4.27668 -1.733518,-1.78 0.183032,1.06268 -0.149439,1.59491 -1.267088,1.31921 -0.88326,0 -1.766521,0 -2.649781,0 -0.176977,-3.5273 -0.258763,-7.05906 -0.496094,-10.58333 2.806779,-0.17556 6.23696,-0.78131 8.438653,1.42584 0.593448,0.69896 0.820901,1.63563 0.814873,2.53602 z m -3.128147,1.48828 c -0.407762,-1.81668 -2.184241,-1.09196 -1.599716,0.52273 -0.472435,1.57961 1.776692,0.33216 1.599716,-0.52273 z m 8.30268,-5.45014 c -0.169416,3.52691 -0.347695,7.05356 -0.447862,10.58333 -1.288466,0 -2.576932,0 -3.865397,0 -0.156178,-3.52777 -0.312356,-7.05555 -0.468533,-10.58333 1.593931,0 3.187861,0 4.781792,0 z m 7.124455,4.33393 c -3.78852,-0.38 0.9893,3.62708 -0.9952,5.30372 -1.33334,2.19093 -5.628992,0.88716 -4.244785,-1.03309 3.216615,0.51075 0.721166,-2.75051 -0.638204,-3.48472 -1.64453,-1.87938 -0.418955,-5.1508 2.135959,-5.29769 1.27346,-0.0402 4.04968,-0.61779 3.59428,1.41962 0.0493,1.03072 0.0986,2.06144 0.14795,3.09216 z"
       id="text1385"
       inkscape:connector-curvature="0" />
  </g>
</svg>
